<svg xmlns="http://www.w3.org/2000/svg" width="512" height="512" id="arrow"><g fill="#202020"><path d="M98.918 118.07c-.056-5.094.255-9.538.395-7.622-.377-10.376.052-10.599-.678-11.943-.358-6.661.138-13.765.434-6.188l-.446-19.203-.113 11.482c-.303-1.563-.258-6.15-.225-10.801l.021-3.533a8.25 8.25 0 0 1 1.709-4.819 8.594 8.594 0 0 1 3.41-2.648c1.171-.511 2.238-.673 2.995-.765l-.391.01a8.418 8.418 0 0 0-8.004 7.893l-.014.33-.003.323.001.478.005 1.939.03 10.393-.201-1.039c.217 4.733.126 13.926.041 17.131-.1-.505-.262-.183-.28-3.849-.046 25.097 1.061 6.76 1.262 27.585a128.54 128.54 0 0 1 .052-5.154zM97.433 139.389l.761 8.754-.196 14.687c.263.167.475 10.866.706 3.622-.042-1.417-.12-4.216-.096-6.477.567 1.639.283 19.531.857 15.215-.15-11.615-.025-13.398-.486-20.548.053-10.648.183-18.403.391-23.375-.086-3.161-.435-3.605-.504-7.621l.022 2.727-.853.434c.18 3.35.095 6.516.112 10.232l-.997-17.192c-.799 5.544-.33 22.437-.662 29.186.72-8.372.358 6.665.945-9.644zM98.866 123.647l-.002-.422.002.422zM351.218 131.348c2.596 2.574 3.5 3.193 3.945 3.494l-29.114-29.09c.753 1.07 8.939 9.648 3.243 4.142 2.322 2.673 10.081 10.132 11.399 11.021l-2.352-1.868c7.015 6.395 10.986 11.583 6.432 7.395l.569.563 19.763 17.379c-6.748-6.888-5.661-4.841-13.885-13.036zM109.861 122.753c.078 5.333.159 5.988.242 5.382a168.197 168.197 0 0 0-.242-5.382zM369.724 148.445l6.19 5.445c-2.429-2.23-4.61-4.142-6.19-5.445zM323.752 113.816c-.031.008-.112-.038.015.143l2.803 2.421-.066-.067c-1.01-.915-1.916-1.738-2.752-2.497zM249.317 192.373c-.641.48-1.187.903-1.922 1.514a75.15 75.15 0 0 1 1.922-1.514zM368.552 127.174l-13.298-12.58c1.895 1.555-4.398-4.636-1.475-2.108-1.013-.959-5.703-5.515-4.529-4.167l2.65 2.628c-7.317-6.328-3.375-2.006-15.064-12.941 6.729 7.316 10.078 10.127 14.022 13.622l3.454 3.317 11.45 10.067 2.79 2.162zM113.833 377.728l.054.2c-.019-.183-.037-.216-.054-.2zM114.111 378.728l-.224-.8c.112.984.219 4.749.224.8zM367.267 146.629c.269.084 1.127.719 2.457 1.816l-4.62-4.061 2.163 2.245z"></path><path d="m356.312 137.834-10.971-10.829-4.275-3.762 15.246 14.591zM269.412 183.914a54.97 54.97 0 0 0-7.637 2.203l-3.037 1.16c-.84.308.343-.393 2.031-1.195 1.684-.811 3.897-1.646 4.893-2.038 1.003-.364.727-.479-2.49.498-3.836 1.347-6.245 2.707-8.26 3.917-1.996 1.253-3.607 2.389-5.596 3.914a44.212 44.212 0 0 1 5.462-3.524c1.348-.725 2.225-1.108 2.761-1.31 1.08-.392.8-.08.535.231-.268.311-.52.62.57.24.547-.185 1.432-.536 2.85-1.065 1.422-.519 3.378-1.226 6.119-1.933-1.481.714-5.34 1.98-9.438 4.05-4.12 2.023-8.386 4.926-11.306 7.37-1.728 1.297-2.228 1.668-2.055 1.363.184-.292 1.066-1.229 2.269-2.316 1.197-1.093 2.718-2.329 4.059-3.342 1.337-1.018 2.487-1.823 2.833-2.221-3.923 2.408-5.315 3.727-6.233 4.54-.896.845-1.257 1.304-2.553 2.748-5.327 4.795-9.43 11.152-11.917 17.281-2.543 6.144-3.546 11.98-4.323 16.192a45.457 45.457 0 0 0-.072 3.4l.074 2.843c.057 1.671.123 2.876.196 3.927.145 2.102.316 3.585.496 6.935.365.667.46-3.665.537-8.702l.058-3.844.046-1.741c.017-.537.063-1.059.092-1.563.168-2.011.46-3.691.743-4.583-.181.747-.46 2.226-.516 1.783 0 0 .262-2.158.73-4.274a48.482 48.482 0 0 1 1.101-4.184c-.628 1.955-.886 2.88-1.015 3.067-.121.188-.103-.359.051-1.288.261-1.868 1.223-5.23 2.083-7.292a45.898 45.898 0 0 1 2.621-5.342c.956-1.653 1.773-2.782 1.61-2.358 0 0-.63 1.053-1.21 2.13-.577 1.08-1.102 2.183-1.102 2.183 1.533-2.741 3.284-5.74 5.412-8.559 2.117-2.817 4.609-5.447 7.321-7.403.358-.108-1.5 1.586-1.706 1.922 2.591-2.666 5.491-4.97 9.043-7.063 3.553-2.082 7.758-4.006 13.151-5.417 0 0-1.536.534-3.021 1.163-1.489.621-2.918 1.343-2.918 1.342 1.992-.937 4.738-1.942 8.016-2.622a44.02 44.02 0 0 1 5.252-.771c1.886-.167 3.662-.177 6.034-.168 9.005.01 18.731.172 26.694.383-1.767-.123-4.949-.208-3.038-.348 9.354-.173 16.42.323 12.087.704 9.138-.6 34.818.505 47.272-.274l7.109-.457.889-.057.444-.029.656-.028 3.275-.114 6.402-.228c7.878-.304 15.755-.608 25.102-.304l-19.577-17.838-4.417-3.982-2.13-1.913-1.383-1.165-5.529-4.66a231.88 231.88 0 0 1 4.952 4.671l1.141 1.434.26.321.371.427.661.765c.806.936 1.304 1.531 1.349 1.671s-.367-.178-1.372-1.061l-4.013-3.525 2.099 1.911 1.954 1.753 3.221 2.828c2.151 1.907 4.938 4.504 11.969 11.516-5.812-5.388-7.925-6.571 1.646 3.202l-2.899-.022-15.261.289-7.505.178-5.543.196c-7.003.273-13.633.586-20.196.91-13.127.646-25.988 1.327-41.033 1.789-.556-.245-6.74-.333-14.221-.374l-11.651-.04c-2.002-.011-3.604-.012-5.19.083a52.749 52.749 0 0 0-4.314.412c.957-.277 2.164-.523 3.563-.727.7-.091 1.448-.18 2.238-.239a49.663 49.663 0 0 1 2.558-.129c3.783-.116 8.125-.18 12.547-.233l-10.52-.039-2.988-.006a53.773 53.773 0 0 0-7.925.588l-1.215.725-1.183.752z"></path><path d="M342.975 181.21a91.005 91.005 0 0 0-2.494-.091c.456.04 1.2.072 2.494.091zM295.936 181.909c.111-.019.072-.033.111-.053l-2.805.038 2.694.015zM371.824 152.747l-3.931-3.478 2.974 2.792c1.005.913 1.508 1.322.957.686zM367.876 147.583l.864.581-1.474-1.535c-.233-.081-.128.152.61.954zM223.797 277.985l.106 3.061c-.009-1.844-.052-2.639-.106-3.061z"></path><path d="M241.409 198.83c1.722-1.864 2.702-2.79 3.252-3.397.563-.594.715-.854.979-1.188.26-.339.622-.766 1.648-1.655 1.035-.873 2.722-2.248 5.858-4.096 0 0-.929.527-1.835 1.092-.906.566-1.789 1.169-1.789 1.169 4.166-3.143 10.681-6.576 17.979-8.273a52.575 52.575 0 0 1 11.07-1.419l10.92-.014c-1.511.291 8.121.354 6.555.805 9.154-.106 18.221-.207 22.937-.672 5.672.152 14.287-.258 21.497-.065-3.044-.273 10.266-.924-7.282-.59 1.417-.037.527-.1 1.928-.138-11.305-.381-15.837.265-25.575.274-5.821-.269 9.521-.435 4.027-.543-6.08.125-15.619.044-23.537.059-3.959.007-7.514.038-10.027.131-2.394.091-3.75.379-3.549.611-4.126.315-6.437.785-8.044 1.045-1.606.279-2.506.418-3.723.674-3.079 1.172-7.431 2.917-11.865 5.563-4.444 2.615-8.919 6.151-12.487 10.002-3.59 3.833-6.268 7.917-7.85 11.049-1.596 3.135-2.191 5.262-1.875 5.352.855-2.2 2.185-5.019 3.932-7.921 1.74-2.906 3.909-5.878 6.181-8.53l.675.675zM386.043 166.865zM322.531 100.316l-3.923-2.645-6.536-6.451-1.484-1.471-.363-.36-.181-.179-.09-.089-.045-.044-.021-.022-.012-.011 1.27-1.266a.6.6 0 0 0 .087-.103c.011-.042-.021.117-.013.036-.003-.024-.022-.062-.012-.042.024-.01-.032.085.143-.011l-.131.187-.008.011c.041-.037-.104.099.09-.079l-.003-.003-.008-.008-.017-.016-.05-.043c-.107-.061.05.01.026-.01a.21.21 0 0 0-.055.012c-.031-.009.013.046.021-.073.004-.016-.072-.102-.01-.056l.171.12.011.007c-.252.298 2.236-2.571 1.188-1.352l.018.018.036.036.072.073.144.145.573.577 1.138 1.146 19.974 20.069c1.162 1.337-.877-.591-1.911-1.569 11.567 11.419 28.63 28.749 37.29 36.822 3.652 3.662 13.05 13.464 9.229 10.019l2.904 2.756 1.521 1.482 2.311 2.315c.175.29-.255-.075-.995-.775l-2.033-1.968c-1.238-1.216-2.555-2.52-2.708-2.485 1.607 1.638 2.195 2.315 2.641 2.616-2.928-2.533 2.054 3.611-10.663-9.134-4.393-5.466 8.893 8.768 6.573 5.265-4.218-4.227-3.956-3.506-4.39-3.795-5.368-5.395-5.078-5.402-4.656-5.25-2.246-1.878-8.758-8.901-11.885-11.47-10.51-10.418 1.014.125-5.827-6.703l-4.54-3.34-11.25-11.476c-16.661-16.239 1.317 3.388-17.825-15.075 1.392 1.079.333-.398-2.151-3.255a227.965 227.965 0 0 0-4.668-5.172l-.346-.372-.021-.023-.011-.012-.006-.006.08.082-.042-.048-.085-.096-.041-.046.023.018.042.04c.039.027.019-.016.033-.016a.302.302 0 0 1 .053-.045c.009-.017.065-.004.017-.018-.009-.003-.008-.005.018.013l.036.028.003.001h.001l-.086.084.007-.006.026-.024c.05-.045.202-.188.12-.105.146-.145-.215.206-.063.057.001.002.002.005-.002 0l-.059-.044c-.022-.014.005.003.025.006.074.008-.002.001-.032.021l.032-.022c.001-.017.028.015.004-.041l-.026-.056c-.007-.016-.037-.051.016-.01l.1.07.051.035.025.017c.04.127-.049-.167-.038-.135l.006.005.011.01.175.167 1.422 1.36 2.95 2.828c3.997 3.841 8.16 7.897 11.451 11.366-9.06-9.999 13.173 13.058 8.765 7.576-4.964-4.456-12.851-12.273-18.837-18.534l2.063 1.952a162.665 162.665 0 0 0-4.733-4.618l-2.361-2.2-.298-.276-.075-.069-.037-.035-.01-.009-.004-.004c-.198.276.436-.625-.444.619l-.021-.015-.171-.119c.047.113.013.13-.004.132-.023.014.002-.001.024-.005.072-.009 0-.001-.033-.021-.003-.001.001-.001.023.016l.047.038.032.03.008.008.004.004.001.001c-.193.174-.052.045-.093.082l.008-.012.068-.097c-.098-.08-.082-.104-.078-.079a.17.17 0 0 1 .014.06.217.217 0 0 1 .017-.066c.002-.005 0 .002-.023.034l-.056.064-.321.35.098.101.195.201 1.604 1.674c4.485 4.447 3.479 3.779 2.554 3.134l5.117 4.876c1.337 1.289 2.181 2.141 2.121 2.213zm-9.855-9.604-.925-.943-.947-.966-.264-.269-.067-.068.681-.697.026-.029a.73.73 0 0 0 .053-.066c.014-.036-.021.074-.012.058.002-.005-.007-.042-.006-.038.012.076 0 .018.022-.029.002-.003-.006.015-.042.058l-.033.037-.744.741.104.103.417.413 1.737 1.695zM97.544 257.558l.069-2.566c-.04.561-.058 1.533-.069 2.566zM329.745 244.874l3.479-3.441a254.05 254.05 0 0 0-3.479 3.441zM369.651 194.048l-7.148.198c2.82-.013 5.031-.091 7.148-.198zM97.485 315.913l-.006.239.045 1.128-.039-1.367zM237.433 290.482a110.711 110.711 0 0 0-.187 3.982c.085-.2.145-1.688.187-3.982zM370.968 194.011l-.434-.016-.884.053 1.318-.037zM314.007 287.739a11.655 11.655 0 0 0 4.028-1.919c.257-.196.436-.33.761-.616l.219-.197.141-.133.143-.144.194-.195.07-.075.144-.153-.494.497-.089.087-.238.217a11.72 11.72 0 0 1-2.089 1.494 12.07 12.07 0 0 1-2.79 1.137zM302.806 280.29a9.126 9.126 0 0 0 1.722 2.47 8.975 8.975 0 0 0 2.052 1.57c0 .001-.31-.166-.741-.468a9.545 9.545 0 0 1-.709-.551c-.127-.104-.248-.222-.374-.339l-.299-.296c-.12-.126-.287-.313-.41-.46l-.315-.399a9.805 9.805 0 0 1-.505-.749 8.222 8.222 0 0 1-.421-.778zM400.342 161.38l-4.745-4.572c2.3 2.28 3.7 3.613 4.745 4.572zM323.691 277.829c.243-.299.487-.597.641-.804-.626.662-.896 1.003-.641.804zM100.07 215.692l.003.4.099.167-.102-.567zM98.836 199.671l-.07-5.788a178.15 178.15 0 0 0 .07 5.788zM235.858 386.467c-.223 1.836-.995 6.075-.852 4.065-.158 1.747-.169 2.58.031 2.06.18-.522.616-2.409.821-6.125zM105.375 247.81c-.114-1.05-.202-2.355-.288-3.666.123 2.438.225 4.577.288 3.666zM105.087 244.144l-.191-3.572c.054 1.255.118 2.461.191 3.572zM229.036 341.809c.058-.434.105-1.105.121-2.017-.115.267-.14.995-.121 2.017zM98.901 189.206c-.202-1.039-.641-26.208-.744-5.039-.629-.816-.291-13.582-.447-19.226-.147 4.1-.404-2.039-.628-.794.076 2.8.257 6.127.212 10.754-.287 2.127-.482-4.894-.375-10.376-.332 6.755-.499-8.571-.753.989.222 20.437.45 34.879 1.369 49.25-.151-11.649-.339-24.681-.086-34.235l.544 4.016c-.479 10.799-.121 17.464-.172 28.085l.289-23.858c.453-11.176.557-3.699.655 5.111.007-2.166.04-4.127.136-4.677zM103.675 205.281l.016-.4c-.02-.35-.032-.783-.055-1.005l.039 1.405zM393.418 170.024l-1.596-1.304c1.276 1.145 1.695 1.472 1.596 1.304zM101.04 219.513v-.017c.006.161.006.201 0 .017zM387.15 200.292c.041-.062.081-.124.16-.227-.118.142-.108.154-.16.227zM385.648 218.378c.084-.048.12-.051.295-.19.747-.791.357-.436-.295.19zM387.157 200.356c-.012-.012-.047 0-.008-.064-.015.04-.066.115.008.064zM396.146 183.962s.897.094 2.365.184c.759-.051.261-.11-2.365-.184zM362.99 220.796l-.675.59.675-.59zM238.52 374.611c.008-2.422-.006-4.238-.029-5.771a207.72 207.72 0 0 0 .029 5.771zM387.31 200.065c.321-.403.796-.961 1.594-1.863-.882.992-1.335 1.531-1.594 1.863z"></path><path d="m315.385 186.71 1.506-.06-.895-.027-.611.087z"></path><path d="M289.844 186.31c.872-.062 1.271-.126 1.761-.182-2.279.057-5.035.083-7.918.102-2.862.025-5.925-.038-8.751.295-5.653.596-10.162 2.284-10.991 2.888a37.998 37.998 0 0 1 4.11-1.199c1.858-.435 4.053-.814 6.081-.982 4.063-.359 7.387-.009 6.02.12 6.355-.145 15.748.261 19.17.166-10.432-.316-1.127-.488 5.916-.684 6.405.169-1.205.466 4.311.573l14.821-.064-12.91-.076 3.922-.557-1.316.053c-21.843.259-1.857-.815-24.226-.453zM291.605 186.128a99.032 99.032 0 0 0 3.499-.137c-2.061.009-2.861.066-3.499.137zM230.579 237.466l.088 3.866-.088-3.866zM333.385 115.433c-.155-.387-8.915-9.625-9.057-9.161l7.969 8.159 1.088 1.002zM170.31 447.095a55.725 55.725 0 0 0 4.289-.347l.821-.167c-.872.068-3.68.419-5.11.514z"></path><path d="M276.265 187.689c2.299-.224 3.33-.259 3.891-.337-1.505.032-2.885.152-3.891.337zM169.464 446.115c-1.801-.039-4.435-.273-4.799-.462-3.639-.153-6.219-.21-9.905-.802 4.144.72 8.992 1.287 14.704 1.264zM154.46 444.802l.299.05-.299-.05z"></path><path d="m338.611 120.915 2.455 2.329-1.325-1.165 6.099 6.282 2.598 2.501a9.711 9.711 0 0 0-.979-.828l1.948 2.019c5.242 4.616 17.738 16.654 21.462 20.008a707.986 707.986 0 0 1 7.564 7.259 605.898 605.898 0 0 1 7.611 7.544 5409.741 5409.741 0 0 0-3.216-3.198 7715.94 7715.94 0 0 1-2.774-2.696c-1.393-1.319-2.226-2.034-1.648-1.284l7.825 8.43c2.604 2.801 5.358 5.685 9.746 9.957-2.391.036-5.154.105-8.408.219 2.973-.002 5.945-.005 8.924-.005l-1.571-1.565c.587.548 1.175 1.096 1.695 1.616l-22.955.895c-1.906-.099-2.181-.177-1.473-.246a33.25 33.25 0 0 1 1.762-.096l3.281-.086c4.884-.112 11.162-.218 12.618-.389-4.747.117-9.605.127-14.107.088l-5.86-.087-5.17-.114c-6.618-.151-12.101-.259-16.025.153-1.105-.488-2.961-1.303-14.07-1.254 8.01.557-6.661.358-.089.954-3.839.279-12.394-.176-13.032.189l1.039-.202c-18.971-.773-25.181.438-33.297.837l-7.981.052c-2.506-.007-4.7.069-6.865.284a56.487 56.487 0 0 0-11.66 2.398 54.709 54.709 0 0 0-10.236 4.45c-3.318 1.866-6.609 4.174-9.924 7.189-.364.122-1.623.82-3.361 2.253-1.729 1.432-3.942 3.619-6.021 6.652-.819 1.506-3.37 5.803-5.029 10.247-1.725 4.42-2.568 8.862-2.461 9.725a77.984 77.984 0 0 1 2.055-6.871l1.284-3.639c.688-1.869 1.042-3.209 2.988-6.577 1.98-2.574 2.237-2.557 2.57-2.861.379-.261.77-.901 3.729-4.094-1.198 1.28-3.035 3.489-4.885 6.373a54.508 54.508 0 0 0-5.116 10.175 58.475 58.475 0 0 0-2.984 11.11c-.578 3.457-.768 6.443-.916 8.371l-.017-1.363.017-1.364c-.225 3.04-.295 5.642-.483 7.986-.166 2.355-.346 4.521-.49 6.952-.287 4.862-.425 10.786-.001 21.415l.348 10.144c-.057-.489-.123-.544-.174-.806-.059 16.604-.704 12.071-.195 30.402-.039-1.417-.102-.527-.14-1.967-.318 10.449.321 20.986.455 28.886-.473 4.821-.465-1.145-.808-4.127-.183 18.381.628 38.218 1.205 49.633l-.054 1.876a54.376 54.376 0 0 1-.309 4.181c-.308 3.034-.991 6.003-.991 6.003.621-3.557.792-7.568.612-10.374-.168-2.78-.376-4.375-.515-3.308.058 3.249.117 4.595.064 6.262-.083 1.663-.115 3.703-1.104 8.267.05-1.614.501-5.51.261-9.839-.329 4.732-.881 7.312-1.088 8.789-.241 1.473-.212 1.844-.149 2.038s.156.213-.022.981c-.206.757-.631 2.297-1.986 5.347-1.044 2.799-1.98 4.97-2.634 6.551-.653 1.582-1.024 2.573-1.035 2.953 0 0-1.501 2.307-3.23 4.429-1.707 2.141-3.63 4.075-3.629 4.075-.234.592-2.579 3.467-6.164 6.439-3.54 3.021-8.367 5.971-12.434 7.778-.461.304 1.248-.27 3.375-1.302 2.136-1.012 4.638-2.548 5.972-3.601-.164.345-2.188 1.924-5.002 3.563-2.806 1.647-6.435 3.246-9.379 4.187-.612-.052-3.306.733-7.006 1.399-3.694.681-8.416 1.138-12.839.958-4.426-.135-8.514-.873-10.989-1.545-2.478-.686-3.383-1.134-1.578-.923-6.602-1.681-13.567-4.885-19.722-9.582-6.176-4.662-11.471-10.805-15.199-17.506-3.761-6.694-5.908-13.907-6.724-20.463-.446-3.269-.474-6.438-.504-9.198l-.139-7.558c.27-5.871.283-17.837.741-10.665.004-21.714-.997-32.913-.73-54.466.122-1.783.009 9.743.334 8.977-.391-14.087.413-25.631.152-47.489.018 3.678.219 4.75.32 5.261-.162.384-.335-8.954-.492-14.609.084-3.177.117 4.232.241 2.449.474-42.223-.853-74.391-.809-116.386-.006 5.997.152 10.128.345 12.776.193 2.648.42 3.813.553 3.877l.012-11.749c-.323-4.527-.322-13.349-.563-20.726.121-.905.252-4.494.404-.833.327-11.604.032-20.667-.302-30.384-.167-4.858-.345-9.88-.459-15.465a575.845 575.845 0 0 1-.115-8.85l-.012-2.294a3.24 3.24 0 0 0-.447-1.49 3.265 3.265 0 0 0-2.798-1.602l.32-.001c.122 0 .396.019.688.089.59.136 1.478.56 2.074 1.523.291.492.491 1.029.511 1.771l.11 2.909.24 6.323.651 17.22.454-8.521.593 15.143c.357-9.043-.469-16.909.021-17.998.138 1.911.094 6.516.358 6.66.191-8.682-.174-9.366-.269-15.893.996 17.198.98 50.917 1.225 69.064.078 2.855-.24-2.444-.342-2.949.033 7.404-.277 11.849-.104 21.169.421 5.788.31-4.416.354-9.01.366.633.344 2.944.399 8.06-.488 1.111-.173 28.085-.769 34.679.154 27.336 1.264-4.372 1.052 22.314l-.559 7.972c.432 15.493.814 35.529.695 53.06l-.018-3.693c-.239-2.461-.386 1.604-.508 3.404-.239 13.249.439 25.153-.12 33.18.594 15.109 1.033 40.301 1.34 57.577-.736 4.66-.625-22.536-1.085-29.725l.003 15.726c-.01-9.721-.29-13.56-.709-19.387-.137 13.782.508 18.315.694 31.38-.2-1.017-.323.728-.329 6.755l.489 1.711c-.04.111-.077.777-.108 2.639l.017.985c.01.609.04 1.479.106 2.521a52.597 52.597 0 0 0 4.495 18.085c-.832-2.201-1.069-3.422-1.367-4.743l-1.216-5.52c.202 2.039-1.155-2.633-1.375-8.347.313 2.48.258 1.088.253-.897l.026-1.562.051-1.563c.037-.943.083-1.615.149-1.583.003 1.483-.014 3.115.015 4.547.04 1.476.14 2.973.306 4.467.324 2.989.948 5.96 1.766 8.742 1.633 5.58 4.174 10.313 6.223 13.374l.471 1.129.5 1.122c3.063 4.47 7.042 8.472 11.147 11.543 4.104 3.089 8.292 5.265 11.657 6.715 0-.001-.558-.164-1.111-.347a27.089 27.089 0 0 1-1.106-.371c5.879 2.838 12.28 4.405 18.556 4.824 6.29.436 12.429-.245 18.081-1.623 5.558-1.83 11.465-4.897 16.347-8.828 4.919-3.887 8.774-8.531 11.21-12.492.594-1.101 2.106-3.342 3.736-6.498 1.633-3.148 3.339-7.244 4.421-11.785a49.387 49.387 0 0 0 1.166-7.01c.105-1.188.181-2.375.197-3.552.025-1.165.017-2.49.02-3.694-.001-4.909-.073-9.425-.277-12.888.063-.934.438 9.516.657 14.242.09-9.216-.633-16.542-.021-19.431-.206 20.681.488-1.111.662 8.204-.011-9.682-.122-19.892-.34-24.642.005 15.671-.846-5.565-.579 10.299-.515-12.293-.72-29.068-.521-43.717.264.145.387-1.661.496-7.121l-.383-4.405c.069-6.854.453 13.254.589-.545-.655-14.198.372-42.756-.839-48.972.478-10.821.484 20.592 1.07 4.283.438 9.488-.063 22.576.541 25.703-.172-9.299.511-3.394.517-9.394l-.373-10.371-.023 2.295c-.143-4.352-.232-9.338-.289-14.718l-.062-8.334-.012-4.349a60.576 60.576 0 0 1 .193-4.646 60.004 60.004 0 0 1 4.476-18.356c2.434-5.829 5.777-11.145 9.535-15.639 6.207-7.753 13.03-13.132 21.097-17.163 4.056-1.974 8.465-3.591 13.412-4.633a56.845 56.845 0 0 1 7.823-1.102c1.367-.107 2.797-.143 4.215-.153l4.125.001c-6.666.357 18.753.344 4.538.999a283.91 283.91 0 0 0 14.326.056c3.91-.087 6.541-.246 6.644-.378-9.193-.091-3.232-.085-10.977-.215 5.228-.32 17.275-.306 22.226-.097-2.294-.023-1.422.038-1.928.139 10.977.215 5.261-.318 13.192-.452 2.517.448 17.515.12 24.759.352l10.504-.639c-2.886.21-.369.249 3.075.283l2.688.027.887.018.58.023c.746.036 1.378.092 1.642.188 2.153-.186 3.595-.461 5.368-.611a51.236 51.236 0 0 1-3.256-3.126c.825.67.24-.027-.619-1.035-.427-.5-.916-1.074-1.301-1.56l-.138-.178-.269-.31-.489-.578c-.271-.332-.42-.549-.399-.605-13.602-14.177-23.824-22.179-36.548-35.765.479.338 3.332 2.795-.438-1.126-3.112-2.944-8.38-8.282-11.653-11.49l.11.093-.177-.16c-1.604-1.571-2.639-2.531-2.751-2.497-5.841-5.251-9.003-7.809-20.168-18.475.456 1.146 9.805 10.228 13.906 14.107l3.79 3.108c2.774 3.816 9.934 9.752 12.269 12.438-3.579-2.968-10.046-9.205-17.079-16.066l-10.684-10.43-2.6-2.522-.447-.452-.434-.489-.326-.409a11.693 11.693 0 0 1-1.086-1.721 11.532 11.532 0 0 1-1.188-3.811 11.674 11.674 0 0 1 2.604-8.978c.195-.239.402-.463.612-.684l.271-.271.324-.3c.318-.286.524-.442.77-.633.243-.179.489-.355.744-.515a11.546 11.546 0 0 1 1.574-.846c-2.683 1.035-5.41 3.344-6.722 6.896a11.983 11.983 0 0 0-.615 5.767 12.075 12.075 0 0 0 2.498 5.838c.988 1.169 1.063 1.162 1.433 1.578l.99 1.04 2.072 2.16 4.456 4.589c6.178 6.321 13.198 13.349 19.773 19.866l-5.56-5.973 6.857 6.843-6.264-6.997c6.425 6.553 12.128 12.068 17.972 17.953-6.873-6.859-9.072-10.01-5.263-6.05 7.313 7.99 8.194 7.752 14.022 13.622-3.225-3.287-7.453-7.527-4.525-4.995 11.118 11.946 14.503 14.791 24.548 25.721-.181-.469.551.112 1.782 1.265l1.542 1.467.748.734c1.047 1.044 2.093 2.113 3.08 2.629l-1.467-1.563c1.038.881 2.075 1.762 2.846 2.532-.35.09-.75.18-1.203.271-1.612-.166-2.056-.291-2.144-.393-.074-.102.235-.18.443-.252.213-.072.327-.139-.018-.216-.335-.077-1.15-.166-2.543-.283a30.573 30.573 0 0 0-1.574.01l-4.665.077c-2.847.07-5.023.171-7.073.276-4.102.211-7.696.441-15.132.473 2.449-.241 6.623-.465 11.684-.627 2.53-.081 5.282-.146 8.151-.19l7.439-.064-.283-.036c.119-.022-1.078-.051-1.933-.08l-3.634-.116c.839-.061 2.283-.106 4.116-.138l1.305-.022.308-.018.657-.024c.904-.024 1.94-.014 2.824 0l-.459-.476.88.65c-.138.092.002.135.384.159-.416-.499-1.945-1.964-2.387-2.785-.333-.002-.109.36-.105.487.028.151-.203.026-1.015-.521.973.962 1.375 1.326 2.207 2.281-.13-.019-.501-.044-.914-.076.285.013.546.019.772.017-.645-.637-1.306-1.151-1.795-1.435a3.053 3.053 0 0 0-.642-.294 1.378 1.378 0 0 0-.242-.054l-.027-.003-.013-.001-.086-.074-.372-.324-.74-.646c-3.939-3.438-7.845-6.912-15.456-14.783 7.753 7.455-2.176-3.127-2.932-4.202-3.618-3.539-10.955-10.719-14.023-13.621l2.227 3.179c-9.817-9.406-12.147-13.753-23.731-24.354-1.727-1.156 9.66 9.854 7.61 7.914-7.739-7.439-12.783-12.717-17.533-17.865l-3.544-3.868-1.801-1.975-.921-1.008-.232-.255-.245-.26-.113-.131-.256-.292-.343-.415a12.396 12.396 0 0 1-.502-.695c-2.617-3.799-2.89-9.277-.065-13.494.348-.52.733-1.018 1.159-1.479l.325-.339.289-.286.074-.066.224-.198.47-.398a11.895 11.895 0 0 1 11.396-1.897c.616.165 1.056.281 1.593.471a9.393 9.393 0 0 1 2.116 1.062c.235.153.479.335.745.543l.405.339.203.154c.267.202.576.445.939.742a84.187 84.187 0 0 1 2.907 2.518c-1.767-1.195 1.574 2.439-3.938-2.654 4.385 4.626 9.933 9.754 14.019 13.618-9.212-9.547 4.249 3.427 6.148 4.984 4.811 4.907-1.767-1.196-4.838-4.102 3.823 3.977 8.037 9.033 10.681 10.82-.074.228-2.998-2.301-6.817-5.779-3.818-3.479-8.533-7.909-12.188-11.486l4.826 4.923c-3.513-3.205-4.098-3.876-8.89-8.763 4.504 4.97 3.778 4.761 2.46 3.871-.576-.664.418.274-.133-.362-3.819-3.973-6.892-6.88-6.147-5.816-3.908-3.099 5.151 5.658 7.59 8.499l6.027 5.866 21.543 18.946c8.801 8.498 12.379 12.698 18.68 19.391l2.13 1.436c7.49 7.562 14.482 14.773 9.219 10.39-.155-.387-1.177-1.353-2.794-3.003-.263-.169-.674-.513-1.176-.961l-.434-.313 13.753 13.357c-14.188-13.181-1.313-.053-4.22-1.727l14.023 13.622c-8.184-8.574.147-.455 3.204 2.436.138.339 1.134 1.418 2.597 2.901l2.496 2.485.473.471c.178.178.35.363.515.557.331.387.644.801.902 1.255l.195.341.092.162-.008-.015-.002-.003.272.554.012.029.045.115.054.145.121.343.124.378c.168.588.211.724.365 1.398l.088.384-.002.49c-.001.604-.011.952-.058 1.561-.016.162-.027.315-.073.605l-.074.38-.105.406-.225.723-.035.114-.08.191c-.14.334-.234.544-.384.849l-.133.259-.169.297-.175.296-.176.293-.07.113-.027.043-.014.021-.007.01-.66.79-.026.027-.107.108-.424.432-1.637 1.672a6248.83 6248.83 0 0 1-2.871 2.88l.287-.43c-4.603 4.363-12.432 12.259-17.932 17.947.368-.137-6.25 7.614-9.358 11.405 9.721-9.461 4.163-3.626 5.144-4.177-1.012.973-2.801 2.753-2.965 3.006-1.276 1.473 1.992-1.73 2.375-1.884 10.037-10.36 20.482-20.896 24.17-25.55-3.345 2.907-5.132 5.55-8.778 8.904 1.806-2.054 3.881-4.264 6.23-6.684l3.73-3.796 2.022-2.029.521-.522.267-.263.134-.132.034-.033.008-.008.005-.004a250.1 250.1 0 0 0 .837-1.003l.04-.061.1-.158.224-.363.113-.187.225-.388c.28-.532.372-.737.577-1.208l.082-.188.064-.2.239-.74.121-.448.026-.113.063-.316c.066-.382.08-.552.101-.739.059-.682.075-1.025.084-1.709l.008-.596-.118-.525-.131-.574-.104-.416-.139-.505-.171-.536-.095-.277-.104-.278-.019-.048-.01-.024-.348-.703.001.002.003.004.016.027-.037-.066-.295-.524a8.452 8.452 0 0 0-.679-1.003 10.981 10.981 0 0 0-.803-.928l-.699-.708-1.05-1.053-2.491-3.071-8.692-8.378c3.716 3.409 1.875.961 10.889 9.859-.87-1.417-8.943-8.819-14.335-14.395l-3.189-2.419c1.294.866-10.4-10.912-1.769-2.866l13.882 13.252-3.508-4.034 11.543 11.396-2.905-2.507 3.583 3.513a12.29 12.29 0 0 1 2.197 2.978l-.019-.031.459.928.004.01.008.02.016.039.061.155.07.191.08.228.098.292.144.458.101.361.137.535.164.724.161.707-.013.788a20.203 20.203 0 0 1-.11 2.01l-.048.383c-.031.195-.032.263-.139.764l-.091.366-.12.421-.242.722-.097.29-.098.227c-.146.334-.236.522-.354.765-.121.239-.227.468-.533.982l-.26.409-.122.19-.076.118-.089.136-.024.037-.012.019-1.106 1.324-.018.016-.972.897a38.51 38.51 0 0 1-1.403 1.225l-1.996 1.6c-1.467 1.23-3.867 3.513-11.169 11.183-5.342 6.273-11.523 12.556-22.986 23.792 8.11-8.319.52-1.177 3.345-4.542-8.571 8.182-11.021 11.4-15.188 15.93-2.377 1.885-4.095 3.199 3.426-4.249.429-1.46-9.759 9.937-10.967 10.083-12.393 12.408-16.934 17.807-22.082 23.643a276.748 276.748 0 0 1-9.235 10.012l-3.194 3.261-1.798 1.804-.386.375-.237.218-.425.367c-.472.382-.927.712-1.438 1.022a12.771 12.771 0 0 1-7.022 1.882 12.777 12.777 0 0 1-8.504-3.537l-.186-.18-.248-.255-.147-.159-.447-.513a12.713 12.713 0 0 1-1.637-13.641 12.68 12.68 0 0 1 1.997-2.957l.412-.434.235-.23-.038.056c-.04.054-.015.041-.16.212-.231.276-.525.658-.793 1.059-.543.799-.941 1.673-.941 1.673a12.21 12.21 0 0 1 1.762-2.415l.979-1.011 1.642-1.683 3.173-3.239 5.97-6.048 10.984-11.002c7.104-7.085 14.052-13.988 22.501-22.606l13.982-12.892c-2.921 3.088-10.594 11.575-6.561 8.067-7.087 5.985-13.831 13.114-21.17 19.861-.576.862 2.396-1.902 3.732-3.063-4.255 4.245-6.635 6.131-12.152 11.839.385-.157 6.646-6.144 2.097-1.462l-7.976 7.297c-5.027 5.188-6.082 6.649-7.4 8.294a47.75 47.75 0 0 1-2.702 3.092c-.66.701-1.469 1.536-2.492 2.566l-1.704 1.698-.989.973-.262.258-.434.442c-.358.391-.701.817-1.015 1.281.21-.359.451-.736.739-1.107l.706-.87 1.007-1.259a152.4 152.4 0 0 1 2.489-2.985 152.803 152.803 0 0 1 6.303-6.942c-5.549 5.417 7.127-7.493 1.942-2.67-3.726 4.174-6.631 7.125-9.883 10.381l-2.521 2.523-.33.33-.321.334a11.762 11.762 0 0 0-3.113 6.812 11.767 11.767 0 0 0 1.687 7.418 11.92 11.92 0 0 0 1.32 1.749l.187.198.104.106.218.218.128.12.259.238c.18.153.357.31.548.454a11.631 11.631 0 0 0 3.916 2.009 11.676 11.676 0 0 0 6.182.101c-.984.259-1.814.367-2.622.405l-.514.015a3.205 3.205 0 0 1-.288-.003l-.396-.018a11.362 11.362 0 0 1-4.539-1.241 11.516 11.516 0 0 1-1.965-1.278l-.509-.436-.255-.237-.297-.297-.109-.111-.294-.324c-.241-.271-.387-.462-.554-.679l.366.471.263.308.236.263.126.135.464.456a11.911 11.911 0 0 0 5.064 2.811c2.32.638 5.289.604 8.076-.673a12.113 12.113 0 0 0 2.001-1.159l.469-.354c.153-.118.377-.311.557-.471l.262-.239.311-.301 1.437-1.401 7.705-7.515c-4.027 3.503 12.286-12.861 10.482-11.837-8.192 8.03-11.038 10.913-14.174 14.07l-5.627 5.622c-.36.333-.392.449-1.433 1.339a11.085 11.085 0 0 1-6.144 2.437l-.454.026-.591.005-.209-.007-.564-.034a11.128 11.128 0 0 1-5.615-2.122 11.717 11.717 0 0 1-.836-.684l-.396-.375-.31-.321a10.944 10.944 0 0 1-1.415-1.891 11.06 11.06 0 0 1-.782-9.656 10.9 10.9 0 0 0-.444 6.188 10.827 10.827 0 0 0 3.169 5.567 10.706 10.706 0 0 0 6.586 2.874l.505.023c.181.006.157-.001.246-.001a10.527 10.527 0 0 0 5.9-1.819 10.372 10.372 0 0 0 1.229-.978c.293-.268.274-.271.378-.377l.132-.132.029-.033.058-.065.115-.131.454-.518 1.706-1.969a120.448 120.448 0 0 0 2.691-3.239c.176-.146.455-.4 1.031-.963 2.441-3.211-.543-.435-1.161-1.165a218.72 218.72 0 0 1-5.699 6.14l-.757.773-.091.088-.188.169a7.872 7.872 0 0 1-1.043.785 8.501 8.501 0 0 1-3.106 1.207 8.548 8.548 0 0 1-6.387-1.425 8.593 8.593 0 0 1-3.545-5.685 8.625 8.625 0 0 1 1.84-6.801l6.887-7.155c.752-1.121-.811.207-3.169 2.446-.586.563-1.226 1.181-1.895 1.826l-1.015.996-.517.511-.272.272a9.22 9.22 0 0 0-1.799 10.441 9.364 9.364 0 0 1-.898-3.471 9.358 9.358 0 0 1 2.064-6.436c.116-.139.23-.281.354-.413l.302-.324 4.268-4.511-1.559 1.897 22.408-22.158c-4.203 4.242-5.423 5.89-7.466 8.254 2.891-2.861 5.835-5.611 8.971-8.532-.988.284-.836-.365 1.975-3.163 14.422-14.252 22.708-21.906 28.401-26.794l1.645-1.694c-1.383 1.021 1.001-1.686 4.238-5.25l5.135-5.63 2.366-2.624 1.013-1.146c.078-.089.155-.177.229-.264l.111-.128.046-.063.162-.231c.142.232 1.101-.615 2.356-1.805 1.257-1.191 2.74-2.653 4.105-3.828-.087-.341-1.09.152-2.27.841a74.17 74.17 0 0 0-3.597 2.286c-.49.686-.885 1.228-1.141 1.612a6.88 6.88 0 0 0-.303.484l-.558.732c-.6.838-.539 1.058-2.552 3.625l-15.181 15.921 3.135-3.818c-7.912 7.61-14.917 15.517-14.792 14.502 3.805-4.397 10.757-10.988 14.529-15.355l-5.297 4.971c8.621-9.494 5.063-4.222 15.727-15.493-2.206 1.828-1.965 1.573-.616.242l2.687-2.678 1.651-1.708.848-.905.195-.214.058-.077.11-.154-.141.095c-.064.05-.047.02-.261.222l-1.099 1.039-2.683 2.618-6.121 6.08c-3.965 3.923-7.094 6.916-5.767 4.947 2.711-2.992 7.696-7.6 12.867-12.484.646-.611 1.295-1.227 1.943-1.842l.486-.462.242-.231c.097-.092.064-.057.104-.092l.265-.225c.354-.306.713-.632 1.036-.953.646-.64 1.154-1.259 1.113-1.537l.127.019.758-.733c-1.554-.001-2.814.111-3.645.261a8.389 8.389 0 0 0-1.021.242l-.098.032c-.055.01.012.021-.226.031l-1.018.062-1.999.117c-6.699-.294-15.948.12-23.209.153l.178-.264-10.243.11c4.878-.481 12.005.013 20.804-.057l-1.095-.491c5.072.292 9.299.215 13.242.014l2.912-.171.358-.023c.115-.008.272-.016.263-.024l.18-.048.385-.1c.535-.133 1.17-.268 1.881-.374-.493.053-.989.091-1.492.119l-.759.034-.772.013-1.346.01-10.871.044c-6.987.037-12.879.14-14.224.62l-7.082-.495-3.389.179c-5.277-.372.111-.955 10.343-1.066 1.777.124 2.667.186 2.128.288 4.749-.219 9.11-.6 20.603-.487l-6.132.26 9.303-.011 1.583-.014.805-.018 1.569-.051c2.055-.08 4.012-.21 5.714-.397-.117.182-.197.33-.246.453l.644-.618-6.612-.115-12.136-.067-28.775-.024c-5.722 1.109-12.51 1.731-15.426 2.762-6.508.095-14.18.178-21.637.19l-10.854-.042-9.173-.146.881-.236a34.59 34.59 0 0 0-12.408 2.342c-2.378.736-1.636.327-.697-.168.944-.469 2.101-.962.409-.463 0 0-.954.341-2.336.964a41.661 41.661 0 0 0-4.892 2.619 40.832 40.832 0 0 0-4.487 3.245c-1.161.965-1.884 1.666-1.884 1.666.204-.498 2.847-3.083 6.593-5.321a38.893 38.893 0 0 1 6.037-2.955 40.349 40.349 0 0 1 5.638-1.725c-1.195.28-3.535 1.069-2.757.907 1.812-.499 4.034-1.027 6.433-1.378a45.178 45.178 0 0 1 3.689-.38c.637-.043 1.223-.057 1.901-.076l2.12-.036c5.593-.09 10.575-.12 12.47.217 4.222-.117-8.577.498 5.716.533 9.571.254 12.688-.352 13.688-.554.155-.265-15.021-.362-9.755-.681-7.448.033-10.415.374-19.941.119 7.382-.032 17.409-.568 21.342-.158 14.599-.493 12.504-1.733 5.621-1.801 1.639.389-26.63.479-7.487.985-4.3.25-10.377.376-16.785.479l-4.846.074-2.42.038c-.718.016-1.431.048-2.137.094-2.824.194-5.525.69-7.911 1.367l.415-.205s-3.012.714-5.854 1.922c-2.861 1.158-5.5 2.763-5.5 2.763.713-.5 1.883-1.211 2.903-1.786s1.878-1.037 1.886-1.18c0 0-.984.446-2.404 1.218a42.12 42.12 0 0 0-9.428 7.018c-1.137 1.126-1.831 1.934-1.831 1.933 1.591-1.792 2.204-2.364 2.023-2.298-.171.073-1.08.838-2.234 1.985-1.158 1.143-2.522 2.701-3.693 4.243a58.313 58.313 0 0 0-2.747 3.988c-.667 1.782-3.052 7.909-.183 2.281 1.789-3.06 2.401-3.885 2.843-4.736.483-.82.82-1.667 2.942-4.126 0 0-1.423 1.818-2.609 3.772-1.201 1.949-2.153 4.007-2.154 4.007l-.426.651s-.534 1.261-.963 2.551c-.444 1.286-.781 2.593-.781 2.593-1.039 2.856-1.335 4.014-1.528 4.292-.176.284-.185-.295-.175-.766.006-.47.001-.837-.234-.115-.206.723-.765 2.535-1.073 6.498l.468-.981.492-.96a42.43 42.43 0 0 0-.393 3.42 42.206 42.206 0 0 0-.097 1.761l-.034 1.94-.112 8.549-.27 17.293c-.172 11.331-.29 21.884-.126 29.375-.404-4.134-1.055-5.955-1.44-.272.123-6.461.097-19.442.03-28.708.125-1.783.841 11.576.688 21.642 1.164-4.877-.703-25.319.477-26.502.206-12.824-.078-17.606-.327-21.905l-.079-1.474a34.447 34.447 0 0 1-.022-1.451c.002-.998.066-2.073.212-3.321.32-2.481.934-5.719 2.891-10.089-.199-.223.269-1.512.872-2.848.595-1.341 1.347-2.709 1.412-3.268-.926 1.119-2.194 3.133-3.339 5.831-1.154 2.691-2.151 6.07-2.659 9.746a42.32 42.32 0 0 0-.397 5.664l.048 6.303c.028 4.211.027 8.276-.048 11.808-.038-1.383-.117-4.167-.217-4.711-.154 10.099-.037 14.271.158 21.325l.063-.889c.515 12.326-.394 7.627-.625 14.882.078 2.811-.074 12.898.313 11.276l-.5 13.138.588-.634c.034 7.41-.354 9.032.004 15.748l.526.312.183-18.403c.172 9.326.504 2.6.615 12.849-.576-11.449-.292 8.099-.781 9.227l.296 7.538-.14-1.928c-.271 5.916.196 7.044.127 13.948.293-8.144.664-13.477.29-23.853.296 7.555.624 22.536.642 26.214.221 7.932-.181 13.47-.24 20.892-.211-14.243-1.597 4.988-1.218-23.553.101.527.078 2.839.016 3.732.673-3.805-.042-17.108-.299-23.297-.388 1.594-.484-4.877-.698 6.094.248-3.6.864 9.243.546 19.681l-.829-1.838-.098 15.198-.039-1.423c-.267 2.858-.241 6.912-.188 11.56l.041 3.587c.009 1.232.032 2.455.012 3.819a54.665 54.665 0 0 1-.73 8.132c-.194 1.973-.727 5.335-1.715 8.978-.967 3.648-2.417 7.551-3.871 10.727-1.441 3.185-2.849 5.652-3.351 6.684-.526 1.017-.055.665 1.772-2.111-2.66 4.233-5.332 8.065-8.383 11.769-3.058 3.687-6.508 7.25-10.86 10.569 0 0 2.799-1.954 5.376-4.203 2.601-2.22 4.956-4.714 4.956-4.714a66.917 66.917 0 0 1-6.139 6.379c-1.519 1.381-2.565 2.232-3.531 3.022a131.99 131.99 0 0 1-3.183 2.509 76.048 76.048 0 0 1-5.855 4.06c-1.284.433-3.989 1.528-1.708.146a70.115 70.115 0 0 1-16.737 5.83c-6.084 1.297-12.48 1.77-18.546 1.457-6.076-.295-11.817-1.377-16.71-2.783-4.901-1.399-8.958-3.094-11.912-4.415a57.588 57.588 0 0 1-8.217-5.132c-2.198-1.65-4.044-3.243-5.952-5.041a91.856 91.856 0 0 1-6.18-6.444c-2.288-2.647-4.931-5.922-7.811-10.496-1.209-1.93-.919-1.075-1.219-1.287-.146-.109-.444-.486-1.101-1.648-.647-1.166-1.681-3.112-3.006-6.469-.167-.455 1.317 2.687 2.16 4.029.409.678.611.932.261.129-.333-.81-1.271-2.656-2.701-6.378-2.301-5.2-3.887-11.809-4.349-18.896a73.253 73.253 0 0 1-.163-5.39l.035-5.131c.005-3.425-.037-6.884-.175-10.312.23-7.238.143-19.798.648-17.182-.115 11.466-.01 27.691.232 30.163-.151-.78-.229 1.224-.289 2.452-.031.631-.049 1.034-.093.714-.023-.16-.043-.502-.07-1.087l-.078-2.373-.055 3.031c-.005.979.006 1.872.038 2.69.057 1.637.172 2.973.292 4.102.25 2.257.53 3.687.816 5.049.298 1.36.604 2.657 1.117 4.617.525 1.955 1.223 4.59 2.674 8.506.313.496-.386-1.537-1.133-4.159-.767-2.618-1.507-5.841-1.934-7.571.171-.054.646 1.927 1.471 4.626.811 2.704 2.039 6.108 3.348 8.977 1.293 2.876 2.633 5.218 3.196 6.035.586.81.275.156-1.177-3.177a90.414 90.414 0 0 1-4.267-10.29c-1.035-3.014-1.793-5.689-2.38-8.335a52.604 52.604 0 0 1-1.175-8.178 48.801 48.801 0 0 1-.084-2.245 66.081 66.081 0 0 1 .013-2.319c.03-1.545.087-3.197.178-4.997.105 1.443.161 3.089.198 4.861l.065 2.832c.037.991.093 2.005.176 3.03.322 4.097 1.111 8.373 2.41 12.013 0 0-.705-3.025-1.099-6.098-.425-3.068-.54-6.157-.541-6.157 0 0-.276-2.229-.394-4.477l-.249-4.294.102.511c.631-20.897-.71-19.331-1.056-38.028-.479 10.832-1.195-2.506-1.488 5.644-.088-12.504.004-21.687.693-21.77.563 23.392.729 1.327 1.417 22.953.247-3.55 1.009 5.149 1.085-7.738-.492-14.521-.574 4.344-.802-10.138.062-.855.124-1.744.225-1.239-.358-6.66.129-7.771-.267-15.831l.138 1.911c.418-9.938-.474-10.871-.018-19.426-.512 3.422-.42-5.744-.739-11.049-.193 8.671-.928 13.365-.887 30.475.405 2.066.629.816.825 7.843l-.049-11.12.252 6.427-.21 10.682c-.289-13.543-.722-7.332-1.143-13.087.177-12.394-.111-10.227.021-18.021.594.783 1.015-23.896 1.396-38.168l-.023 6.622c.375 10.365.495-7.133.658-7.516l-.297-7.555c.041 1.422.18 3.389.264.167-.11-10.227-.699-9.632-.811-19.842.327-.767.823 7.866.995 1.517.285-2.189 1.044-9.16.755-22.725-.125-.961-.195-4.478-.249-8.555.018.566.03 1.277.054 1.533l.356-9.01c.558 7.677-.263 15.526.297 23.242l.53.656c.002 6.005.231 14.159.506 17.909.09-9.154-.049-11.082-.159-21.319.335-1.434.584 5.777.62 6.815l-.302-1.527c-.439 12.209.508 18.253.41 33.452-.021 2.294-.061.895-.161.383.514 12.304-.19 24.375.487 36.334l-.279-3.899 1.252 39.974.207.127c.124-1.766.117 4.205.033 7.41l-.003-.017.658 21.914c.127-2.005.234-4.571.264-7.516-.242-2.494-.044-17.114-.594-15.109.332-6.755-.145-17.637.064-22.597-.354 9.037-.52-6.294-.823-7.877.348-3.039-.026-13.394.441-12.21.122-1.783-.31 4.438-.03 8.282.436 9.466.383-17.331.797-5.538-.328-14.998-.186-34.763-.616-50.233l-.191 8.66c.068-6.877-.036-23.153.19-24.369l.143 17.62c.527.316-.003-15.709.322-16.437l-.873-18.987-.029 8.316c-.32-5.238.066-22.625.141-35.513.722 7.394.019 19.442.308 33.002.274 9.849.697-6.083.87 3.238.168-2.417.148-8.499-.033-11.499l.131-3.677c.656 8.315.51 26.958 1.074 39.368-.07-1.089-.145-2.039-.221-2.383-.254 9.555-.244 19.259-.07 28.575.207-4.928.066-6.877-.01-9.693.162-.35.232 8.443.412 11.771.191-8.665.387-1.616.495-7.099.156 5.644.111 10.215.042 17.092-.248 3.566-.342-2.949-.666-2.222.195 7.083-.582 10.321-.207 20.687.137-13.787.707 3.633.925 8.383l.023-2.312c.381 4.372.396 8.083.048 11.104-.156-5.644-.048-11.104-.436-9.499.017 3.728.033 7.443.15 11.665l-.28-3.838.081 18.525c.342 2.934.824 7.833 1.328 10.399-.31 4.443-.052 10.632.067 14.848l-.143-1.961c-.146 4.086-.158 10.674-.096 16.433.031 2.879.081 5.551.142 7.599.031 1.018.063 1.904.1 2.539.037.608.083 1.023.125 1.199-.017.672-.075.585-.16-.012a23.032 23.032 0 0 1-.131-1.248l-.135-1.964-.619-9.946c-.206-2.943-.395-4.78-.515-3.303-.06.739-.103 2.308-.122 4.98l-.01 4.872.01 3.122c.008 1.123.002 2.343.037 3.534.093 3.708.485 6.116.82 7.771.346 1.654.668 2.56.953 3.266.613 1.399.988 2.047 2.359 5.953 0 0-.236-.416-.046.388.967 3.032 1.747 4.614 2.488 6.039.762 1.416 1.5 2.684 2.843 4.907a92.78 92.78 0 0 1-2.712-5.655c-.828-1.89-1.472-3.582-1.826-4.395.494.833 1.591 3.924 3.22 7.189 1.594 3.279 3.768 6.681 5.336 8.52-2.054-2.385-.421.193 1.609 2.721 2.02 2.532 4.468 4.928 2.647 3.278 4.16 4.767 9.462 8.795 14.576 11.493 5.112 2.734 9.963 4.182 13.174 4.851 3.98 1.521 7.721 2.167 12.112 2.415 4.397.204 9.491.084 16.303-1.076-2.078.423-5.892 1.09-8.876 1.131-3.941.363-.347.407 2.722.171 1.532-.111 2.923-.293 3.183-.282.257-.005-.604.264-3.65.668 2.603-.352.165-.223-2.511-.018-4.694.303-9.144.013-7.979.354 0 0 2.849.361 5.733.428 2.881.096 5.767-.106 5.767-.105 0 0-1 .134-2.004.232-1.004.104-2.013.17-2.013.17s4.406.021 8.775-.653a62.363 62.363 0 0 0 5.959-1.175c1.61-.404 2.671-.729 2.671-.729.424-.246-1.188.166-2.02.341a59.34 59.34 0 0 0 14.426-6.295 61.503 61.503 0 0 0 12.541-10.049c7.439-7.694 12.395-17.084 14.922-25.666-.107-.908.623-3.994 1.155-8.439.265-2.221.47-4.781.505-7.556l-.062-9.31c-.083-13.096-.097-27.656-.526-35.292.401 4.095 1.108 6.333 1.399 3.8.059 3.405.623 10.377.506 18.098-.225 1.233-.479 10.771-.735 4.633.159 21.342.613-2.889 1.133 3.411-.136-23.647-.954-37.518-1.283-52.444l.165-.378-.313-11.271c-.093 9.21-.885 8.755-.607-3.116l.039 1.444c.333-6.771-.059-20.858-.007-31.436l-.458-7.171c.052-10.594.905-11.049 1.416-14.493a508.32 508.32 0 0 0-.081-11.281c-.024-1.723-.092-3.29-.084-5.048.011-1.703.098-3.35.251-4.952.647-6.399 2.202-12.136 5.063-17.939.772-1.243 2.233-3.635 4.161-6.113 1.911-2.491 4.299-5.04 6.428-6.93 2.116-1.908 3.943-3.17 4.467-3.481.553-.281-.26.306-2.881 2.699 2.986-2.71 5.262-4.415 7.217-5.852 1.967-1.422 3.644-2.554 5.75-3.69 2.109-1.12 4.661-2.269 8.502-3.237 1.92-.48 4.167-.879 6.825-1.109a48.465 48.465 0 0 1 4.301-.15l1.162.023 1.103.041 2.325.095-3.333.18a60.67 60.67 0 0 0-2.488.176c-.684.058-1.137.118-1.137.118 1.66-.122 3.47-.132 5.012-.136l4.914-.034 10.214-.094 20.567-.226c13.24-.141 24.825-.225 30.482-.036-4.529.645 3.139.972 12.485 1.297l14.104.523c5.797.2 9.988.438 11.035.754-.637-.144 2.069-.241 5.283-.32 3.203-.08 6.888-.142 7.973-.219l1.791.091c-2.145 2.002-4.688 4.483-6.993 7.078 4.363-4.2 4.054-3.492 3.83-2.951-.22.538-.197.753 5.489-5.09l-6.185.102 6.79-.353c-3.742 4.229-8.695 9.601-15.337 16.532l-8.748 9.08a729.758 729.758 0 0 1-8.426 8.519l-.156-.589 11.469-11.242c-.355.218-.255.018.13-.445l.34-.394.205-.229.355-.377 1.673-1.75c2.44-2.53 5.557-5.699 7.247-7.517l-9.207 9.011-1.107 1.049-.813.75c-.485.443-.861.775-1.151 1.02-1.159.978-.93.545-.706.136.446-.818.866-1.545-9.907 9.276-1.845 2.328-.593.876-6.11 6.585 2.627-2.652 2.846-3.384-1.413.865l-3.788 4.383c-8.163 6.92 12.079-12.887 5.208-6.89l13.788-14.575a4436.14 4436.14 0 0 0 2.827-3.041c.891-.986 1.645-1.823 2.217-2.458 1.195-1.367 1.482-1.852.567-1.175l-2.636 2.6-2.072 2.085a184.403 184.403 0 0 0-3.344 3.492c-1.938 2.082-3.378 3.742-4.84 5.421-2.923 3.358-5.929 6.788-13.156 13.798l-1.719 1.313c-4.871 5.146-5.352 6.283-7.896 9.223-.362.132-1.722 1.318-4.972 4.502-7.979 8.936-13.497 14.643-20.775 22.966 20.371-21.154 18.114-17.386 39.196-39.165-3.204 3.513-18.178 18.713-18.59 20.155l-.174-.574c-6.773 7.162-13.546 14.317-22.421 22.946l5.132-5.552a321.09 321.09 0 0 1-8.019 8.079l-3.694 3.568-1.652 1.578a.615.615 0 0 0-.192.243.687.687 0 0 0 .69.956.638.638 0 0 0 .329-.123c.024-.015.044-.036.065-.055l.029-.03c-.006-.005-.081.069-.021.012l.729-.772a137.707 137.707 0 0 0 3.207-3.547l-4.115 4.076a.523.523 0 0 1-.18.103l-.056.018c.015-.001-.073.004.025.006l-.142-.001c.08.013-.043.011-.053.013a.538.538 0 0 0 .299-.083c.025-.013.1-.08.069-.065l.965-.988 5.032-5.091c3.43-3.437 6.953-6.909 10.231-10.125l12.827-14.058c.065.305 8.593-8.2 4.776-3.793 9.957-9.388 13.968-14.51 19.468-20.195 10.299-9.505-8.409 8.762-8.871 10.254 13.82-13.473 28.132-28.096 35.506-36.14-2.857 2.707-4.273 3.993-4.22 3.759.527-.293 5.998-5.824 9.068-8.887l1.871-2.355c5.268-4.939 4.687-4.074.521.457a172.923 172.923 0 0 0 4.258-4.363l2.188-2.313.552-.583.276-.29.139-.144.069-.072.035-.036.009-.009c-2.395-2.739 3.296 3.749 2.56 2.981l-.322-.215-.647-.427-2.305-1.482.15-.262.093-.163.034-.06.024-.044c-.034-.022-.035-.023.366.216l.869.516.868.517c.416.321.084.07.163.133l-.221-.129-.442-.253-1.666-.898.006-.017.035-.083c.032-.059.051-.158.08-.161l-.138.324c.064-.2.103-.33.105-.355l.001-.001.37.103c.27.072.431.148.654.216a14.9 14.9 0 0 0 1.261.359l1.04.161.13.02c.015.013.06-.014.049.031l-.062-.014-.246-.051-.494-.085a51.465 51.465 0 0 0-2.41-.337l-.326-.037c-.093-.01-.025 0-.047-.005v-.006l.001-.017c.009-.13.022-.546.019-.678l3.053.366-1.544.315-1.409.306-.004-.015-.017-.068-.046-.179-.09-.334c.171-.074-.752.209 1.742-.54l1.096-.336.525-.172.131-.044c.792-.261-6.605 2.179-3.477 1.146l-.001-.002-.003-.009-.021-.065-.061-.182-.016-.047v.002l.001.001.005-.001.077-.027.619-.22 1.231-.455.961-.355.45-.179.225-.092.111-.047.056-.024c-6.782 4.232-1.882 1.17-3.396 2.113l-.079-.141a2.378 2.378 0 0 0-.447-.614l-1.22-1.305-1.212-1.356 2.619 2.476c.208.178.404.383.536.631l.082.137.006.01c-.669.424 5.892-3.695 3.086-1.939l-.057.024-.224.093-.451.181-.931.345-1.233.458-.504.18v-.002l.019.049.064.183.022.064.003.009.001.004c1.411-.465-3.158 1.044 3.165-1.042l-.065.022-.525.174-1.082.332-1.298.393c-.314.093-.184.053-.212.061v.001l.007.02.097.343.048.182.019.072.005.018c.04-.007-.142.033.294-.06l.773-.171 1.548-.316-2.707-.366c.005.149-.009.563-.021.711.011.016-.028.03.025.031.896.11 1.686.212 2.411.337l.494.085.246.051.062.013c.022-.043-.031-.018-.043-.03l-.13-.02-1.04-.161a14.998 14.998 0 0 1-1.261-.358c-.223-.068-.385-.145-.653-.216-.093-.024-.026-.003-.048-.008l-.115.367.116-.307-.067.182-.041.087-.003.005v.001l.018.01.131.07.51.274.97.532.24.139.119.07c-.132-.095.463.313-.266-.195l-1.668-.991-.004.006-.007.012-.199.332-.098.161-.02.033.008-.013 2.335 1.508.701.464c-4.733-5.544-1.315-1.534-2.373-2.77l-.01.009-.019.02-.039.038-1.225 1.231-2.424 2.43-4.584 4.574c-2.88 2.875-5.326 5.336-6.861 7.005a456.762 456.762 0 0 1 9.464-9.477l3.7-3.54 1.725-1.621.425-.393.053-.049.007-.006.004-.003c-.425-.527 4.14 4.868 1.968 2.424l-1.87-1.224-.47-.302a3.456 3.456 0 0 0-.245-.155l-.003.004-.004.009.062-.09.148-.223.14-.21.005-.008.002-.004 1.122.667c.564.328.744.512.576.379l-.079-.047-.158-.092-.637-.36c-.373-.204-1.063-.563-.864-.468a.204.204 0 0 0 .024-.037l.146-.269-.106.281.145-.374.004-.007-.001.005c.002.002-.006.002.004.007l.077.027.155.053c.415.139.835.261 1.26.368l1.045.166c.083.023.178.003.253.063l-.244-.052-.492-.088-1.123-.172-.97-.128c.002.004.006-.021.009-.036.031-.166.063-.577.077-.754l2.226.366c-.71.137-1.418.285-2.124.442-.036.009-.011-.004-.019-.005l-.007-.042-.023-.122-.056-.27-.05-.229-.002-.012h.001l.125-.037.908-.277c.529-.157.999-.301 1.496-.469-1.142.376 2.814-.929-2.513.827l-.002-.006-.004-.012-.007-.024-.044-.151-.031-.112c-.004-.012-.008-.029-.005-.022l1.536-.567c.432-.156.859-.323 1.282-.502 2.414-1.521-3.096 1.99-2.547 1.629l-.007-.013-.015-.027-.013-.022-.009-.02-.019-.039-.038-.079c-.05-.106-.1-.213-.166-.312a3.417 3.417 0 0 0-.216-.287l-.303-.334-.994-1.053-4.497-4.684c-3.345-3.435-7.492-7.59-13.1-13.043-.155-.387 3.806 3.123-.441-1.13-9.936-9.758-3.071-2.074-6.416-4.88 7.731 7.43 11.11 11.105 15.204 15.811l-2.22-1.826c-.204-.409-4.959-5.175-6.263-6.676l-1.627-.825c1.01.122-6.269-7.832-12.421-13.652 5.728 6.371 4.11 4.72 5.251 6.871-8.896-7.938-9.027-9.968-18.97-18.896.85.564 9.193 8.695 2.185 1.469-5.872-5.912-5.433-4.78-9.494-8.622 4.819 4.081 3.951 2.664 9.213 7.048 10.515 10.421 4.218 4.228 14.611 14.298l-8.349-8.974c8.93 8.809 6.873 6.027 7.745 6.616-14.771-15.522-11.977-10.853-21.624-20.695-4.951-4.444 9.075 9.182 1.461 2.098-9.06-9.167-2.319-1.836-12.709-11.904l1.883 1.542c-2.907-3.346-6.269-6.167-9.924-9.747-4.091-3.867 3.221 5.79-13.164-10.545.904.698 1.265.927 1.308.884l19.063 12.854-26.392-26.516-.863-.873c-.275-.274-.614-.632-.797-.79a3.59 3.59 0 0 0-4.865.146c-.842.796-1.275 2.105-1.021 3.3a3.64 3.64 0 0 0 .771 1.621c.204.244.515.537.81.843l.883.897 14.208 14.474c3.914 5.128-14.201-13.199-13.3-11.751l-1.349-1.388-1.383-1.422c-.514-.52-1.059-1.056-1.39-1.742-.712-1.356-.621-2.978-.181-3.998a4.722 4.722 0 0 1 1.004-1.549c-.021.092-.32.435-.625 1.053a4.823 4.823 0 0 0-.474 2.594 4.66 4.66 0 0 0 1.53 3.013l2.795 2.733c3.581 3.492 6.137 5.909 2.41 1.728l-2.833-2.774-1.346-1.324c-.422-.428-.936-.889-1.202-1.23-1.266-1.557-1.102-3.855.089-5.191 1.154-1.4 3.148-1.808 4.69-1.167a4.19 4.19 0 0 1 1.066.626c.29.239.655.631 1.004.971l2.082 2.074c5.535 5.504 11.015 10.866 18.613 17.935-1.974-2.583-6.83-7.385-12.327-12.793l-8.445-8.365c-1.339-1.433-3.5-1.896-5.256-1.262-1.779.599-3.055 2.208-3.366 3.914a5.215 5.215 0 0 1 2.162-3.466 5.21 5.21 0 0 1 3.741-.879c1.272.165 2.421.882 3.231 1.76l2.55 2.429-1.673-1.702c-.58-.56-1.067-1.161-1.765-1.708-1.375-1.044-3.295-1.357-4.966-.768a5.42 5.42 0 0 0-3.472 3.797c-.454 1.752.056 3.756 1.349 5.083l14.706 14.977 2.437 2.143-12.093-12.377c9.056 9.162 17.075 16.508 18.125 16.668l-1.603-1.634 3.431 3.153c2.116 2.165 4.224 4.33 6.321 6.484zm-227.922 28.301c.061.783.131 1.4.219 1.855-.092-.472-.151.056-.219-1.855zm262.215 74.326 36.301-35.819c-21.921 20.163-37.395 34.304-2.208-.846l1.12-1.184.771-.812.075-.079.035-.037.005-.004-.097.115.001-.001.001-.002.005-.008.009-.015.076-.13.068-.12-.161.247-.008.012-.004.006.097-.116-.003.003-.028.027-.058.054-.114.108-.47.449-.989.955-2.166 2.112-4.935 4.875a1434.03 1434.03 0 0 0-11.028 11.099l-14.145 15.859-6.836 7.752-2.078 2.396c-.482.566-.734.876-.695.862 2.378-1.887 5.228-5.273 9.186-9.08l-1.727 1.322zm-10.089 7.143c-6.984 6.788-5.224 5.417-6.119 6.663l7.171-7.303c-.96.871-1.473 1.26-1.052.64zm-5.534 6.428c.778-.77 1.446-1.421 1.814-1.743l-1.814 1.743zm-24.787-135.355.718.697-4.916-4.998c.632.688 1.867 1.967 4.198 4.301zm13.546 14.406 1.955 1.313a22159.95 22159.95 0 0 1-4.609-4.684c.377.668.796 1.341 2.654 3.371zm43.864 45.975c3.218 2.447 12.721 11.915 13.747 12.052.72.49-1.232-1.548-3.435-3.824l-7.956-8.03c-.163-.033-.785-.535-1.782-1.416 2.737 2.849 4.493 4.825 3.088 3.967-6.584-7.776-6.857-6.01-14.467-13.924-2.784-2.157 8.326 8.948 10.805 11.175zM101.782 381.276c.052-.308.195-1.382.37-2.887l.168 3.85c.105 1.906.335 3.797.335 3.797.464 6.768 1.696 12.838 3.725 18.474 2.037 5.622 4.892 10.827 8.9 15.493 3.347 4.668 5.318 7.093 7.253 9.383a58.615 58.615 0 0 1-5.298-5.629 59.877 59.877 0 0 1-6.604-8.61 52.384 52.384 0 0 1-3.41-6.302c-1.546-3.467-2.06-5.49-2.491-7.294-.406-1.814-.717-3.428-1.276-6.291-.507-2.867-1.404-6.989-1.672-13.984zm115.069 43.244c-.918 1.106-1.203 1.551-1.203 1.551a68.193 68.193 0 0 0 11.508-18.897 67.02 67.02 0 0 0 4.593-19.056c.286-3.048.308-5.979.244-8.82l-.088-8.16a1268.35 1268.35 0 0 1-.044-14.052c-.464 3.208-.8 18.155-1.015 25.173l-.509-6.242.41-3.916-.474-10.888c-.351 3.044-.278 11.838-.547 17.715.02.106.094 1.446.146 3.271a62.89 62.89 0 0 1-.23 6.933 65.163 65.163 0 0 1-1.166 7.739 77.508 77.508 0 0 1-1.441 5.647s1.344-3.416 2.244-6.983c.942-3.555 1.425-7.216 1.426-7.216-.277 1.963-1.095 7.819-3.208 13.822a65.94 65.94 0 0 1-3.708 8.688 69.055 69.055 0 0 1-3.851 6.555c.063.142 2.11-2.488 3.853-5.596 1.775-3.09 3.172-6.633 3.196-7.523.476-.675-.677 2.606-1.681 4.854-.488 1.129-.901 2.011-.866 2.086.025.07.537-.647 1.682-2.843a55.184 55.184 0 0 1-4.637 8.673 60.768 60.768 0 0 1-6.732 8.517c-4.958 5.288-10.648 9.2-14.405 11.309l-1.585.174c-4.156 2.172-5.563 2.896-7.155 3.787a25.88 25.88 0 0 1-3.008 1.391c-1.343.514-3.165 1.129-5.908 1.724 3.333-.887 4.791-1.511 5.334-1.762.541-.266.153-.224-.313-.151-.467.07-1.016.163-.804.026.208-.148 1.195-.475 3.711-1.479-1.655.52-1.736.347-2.662.539-.465.088-1.14.268-2.348.601-1.208.327-2.945.827-5.572 1.398-4.306 1.326-7.21 1.429-9.981 1.437-2.789-.032-5.479-.158-9.735-.19-2.802-.46-1.266-.413-.426-.424.421-.011.671-.034.129-.137-.54-.112-1.879-.264-4.592-.785-3.137-.47-5.419-1.005-7.108-1.412-1.688-.413-2.785-.707-3.533-.867-1.494-.332-1.593-.13-2.084.015a44.986 44.986 0 0 0 7.009 2.336c1.943.471 3.558.723 5.104.918 3.101.353 5.917.58 10.816.79 0 0-1.22.056-3.057.035a64.434 64.434 0 0 1-6.737-.439 64.235 64.235 0 0 1-6.69-1.155c-1.812-.415-3.005-.763-3.005-.763 3.419 1.312 6.076 1.938 8.313 2.337-3.933-.705-7.233-1.552-10.054-2.352a56.849 56.849 0 0 1-4.407-1.456c5.195 2.357 10.407 3.827 14.506 4.64 4.104.819 7.085 1.067 7.971 1.269l-1.602.18c2.015.328 4.704.47 7.257.368 2.555-.088 4.965-.412 6.467-.701 5.108-.595 10.086-1.967 13.947-3.391 3.873-1.411 6.659-2.808 7.752-3.124l-1.698.968c-.856.476-1.729.921-1.729.921a65.722 65.722 0 0 0 6.949-3.523 67.75 67.75 0 0 0 5.029-3.242 68.268 68.268 0 0 0 12.002-10.842zM372.47 206.055a132.257 132.257 0 0 0 7.784-6.195c3.172-2.716 7.648-6.833 14.206-13.204-3.02-.049-6.539-.081-10.563-.095l-13.362.018 2.783-.077c-17.82-.701-34.746.927-56.427.148 10.521-.421 9.954-.383 21.569-1.346l-11.287.316c3.127-.608-8.133-.293-16.415-.322l7.311-.723c4.971.208 17.858.283 17.48.118-2.821.08 17.015.913 27.792.703-1.111-.49-23.864-.292-13.704-1.092-8.955.335-10.065-.153-19.426.019 8.977-.336 2.222-.668 8.904-1.025l-15.348.167c-.4-.163 22.353-.362 9.776-.965-6.149.257-22.569-.065-22.864.462l-.378-.162c-11.504-.114-5.061.747-19.187.446-.166.265 2.527.449 7.588.394 4.277-.118 4.934-.48 13.743-.554 3.949.413-10.627-.051-4.511.646 3.039.347 23.259-.3 16.814.484l-11.481-.113c-.295.528-8.61.498-8.377.924-7.021.194-13.648-.4-20.819.059-1.489.171-.934.415-1.489.582-.277.083-.833.147-2.061.173-1.225.035-3.198-.009-6.226.264-2.383.065-5.941.527-9.931 1.759-3.987 1.218-8.374 3.244-12.351 5.964-3.992 2.699-7.545 6.066-10.257 9.409a48.242 48.242 0 0 0-5.797 8.997s-.987 2.108-1.753 4.296c-.779 2.185-1.33 4.429-1.33 4.429.235-.339 1.524-4.553 3.137-7.736.782-1.599 1.562-2.963 1.981-3.592.411-.635.426-.554-.23.765 0 0-1.783 3.105-3.029 6.454-1.3 3.328-2.041 6.822-2.041 6.822l.062-1.118c-.606 2.292-.975 4.671-1.152 7.005-.179 2.327-.118 4.648-.044 6.737a40.543 40.543 0 0 1-.149-4.104 47.04 47.04 0 0 1 .319-4.628c.336-2.86.785-4.897.271-3.956-.787 3.299-1.043 5.25-1.26 7.13-.203 1.881-.223 3.75-.165 6.731-.039-1.317-.093-2.45-.17-2.283-.238 13.271.615 12.815.794 16.143.716 13.343.664-13.448 1.23-11.743l.303 38.957c-.179-3.327-.356-6.677-.582-5.422-.254 9.555-.427.217-.4 13.632.752-.955.469 16.893.903 26.369-.308 4.428-.37 5.339-.379-4.344-.488 1.111-.301 14.109-.345 18.731.121 2.678.192 7.243.301 10.138.243-3.878.549-2.222.757 6.171l.103.489c.134-13.76.667-35.146.167-43.772l.242 2.438c.422-15.926-.877-34.657.045-42.001.365.678.084-3.199.611-2.922l-.412-11.726.239 2.438-.06-9.974c-.002-2.501-.068-4.995.026-6.778.085-1.812.243-3.011.243-3.011l.04.519a46.007 46.007 0 0 1 2.351-12.175 47.214 47.214 0 0 1 4.166-9.037c-.162-.138-.626.302 1.101-2.358a36.506 36.506 0 0 1 5.063-5.854c.011-.012.011-.012.01-.014l.002.002c1.805-1.669 3.456-2.893 5.284-4.082 1.833-1.181 3.846-2.337 6.546-3.63 0 0-1.035.507-2.526 1.378a47.724 47.724 0 0 0-5.23 3.557 47.514 47.514 0 0 0-4.708 4.221c-1.205 1.236-1.946 2.116-1.947 2.116-.334.703-.182.798.829-.062 1.023-.841 2.868-2.706 6.408-5.337-1.419 1.113-2.3 2.048-2.448 2.283-.135.252.438-.212 2.167-1.592.146-.203 2.414-2.062 4.369-3.352 1.938-1.308 3.46-2.196 1.486-1.303 3.707-2.146 8.366-4.035 13.696-5.023a45.297 45.297 0 0 1 8.395-.765l9.251.11c12.678.146 26.497.216 39.873-.155-19.22.446 15.404.523-5.933.684 14.893.625 12.815-.615 27.997-.518 1.294.225-8.266-.029-11.754.414 10.416.104 19.487-.05 28.273-.253l12.011-.315c3.706-.1 7.629-.187 11.718-.233a491.283 491.283 0 0 1-7.359 7.384l-1.256.566-9.597 9.88zm-33.729 34.586-10 10.237 1.004-.983-9.707 10.262c6.27-6 10.69-9.664 2.28-.901.58-.865-2.104 1.471.797-1.598-5.961 5.547-18.786 17.971-14.974 15.2 10.565-11.549 3.24-1.914 11.563-10.967-2.161 2.5-4.436 4.867-6.7 7.179l-3.376 3.435c-.523.557-1.201 1.179-1.503 1.612a3.648 3.648 0 0 0-.638 1.657c.141-1.233.551-1.728.434-1.806-.059-.065-.581.301-.969 1.306a4.185 4.185 0 0 0-.225 1.916 4.46 4.46 0 0 0 .982 2.327 4.651 4.651 0 0 0 2.567 1.597 4.795 4.795 0 0 0 3.335-.446c.456-.262.915-.663 1.419-1.208l1.717-1.744 4.21-4.235c3.018-3.032 6.276-6.32 8.698-8.879-2.093 1.456 2.063-3.064-6.134 4.972a307.734 307.734 0 0 1 12.764-12.734c-1.993 2.102-5.533 5.72-5.171 5.588 3.623-3.037 7.511-6.951 9.788-8.977l5.083-5.185c-.53.475-1.002.874-1.357 1.139l5.426-5.987c-7.45 7.749-3.658 3.364-3.745 3.077.166.581 4.939-4.842 7.528-7.456l-6.04 5.252c2.536-2.93 9.924-9.354 8.112-8.322-12.144 11.83-16.688 16.508-27.412 27.466l4.706-4.094c-6.008 6.225-8.024 7.979-10.254 9.895-1.114.958-2.281 1.956-4.027 3.574-.873.809-1.891 1.772-3.118 2.963-.61.599-1.277 1.251-2.007 1.966-.351.343-.82.826-.931.878-.247.181-.53.333-.851.429-.273.1-.535.178-.938.179a2.73 2.73 0 0 1-2.065-.922 2.86 2.86 0 0 1-.624-1.11 2.948 2.948 0 0 1 .545-2.692c.107-.14.444-.469.727-.758l.86-.872 1.692-1.72c4.441-4.521 8.169-8.398 8.031-8.819-1.55 1.891 9.041-8.045 13.489-13 4.686-5.708 20.333-21.492 15.338-16.965-4.252 4.24-9.687 10.236-13.433 13.316l8.131-8.343-5.684 5.126c2.896-2.698 2.352-2.699.657-1.825zm32.38-107.569-.311-.326.352.355-.041-.029z"></path><path d="M100.139 208.848c-.18-3.35-.15-11.632-.538-10.01.427-.2.066 14.798.538 10.01zM100.556 198.944c-.102-.583-.265-.178-.28-3.894l.108 10.232.172-6.338zM103.469 188.561c-.318-5.277-.497-8.621-.468-16.904 1.04-3.11.291 13.56 1.26 17.315.098-15.182-.811-19.842-.898-32.33-.435 6.189-.685 31.464.106 31.919zM104.782 195.305l-.234-8.443-.061.833.234 8.449zM95.752 378.167c-.082.19-.122.662-.137 1.307-.013.658-.006 1.419.027 2.41.068 1.917.293 4.104.476 5.624a82.473 82.473 0 0 1-.222-4.364l-.054-2.509a75.406 75.406 0 0 0-.09-2.468zM117.421 339.05l-.313-64.403.313 64.403zM235.961 375.939l.117 6.126a73.325 73.325 0 0 1-.177 5.704 70 70 0 0 1-1.456 10.183 65.28 65.28 0 0 1-3.022 9.945 64.716 64.716 0 0 1-5.645 11.083c3.497-5.122 5.663-9.863 7.168-14.166 1.495-4.316 2.325-8.223 2.849-12.021.516-3.802.717-7.507.685-11.532-.05-3.82-.031-7.914.137-12.783l-.656 7.461zM238.543 382.131c-.596 2.714-.71-13.414-1.156-10.925.075 5.827.22 7.184.341 8.406.059.628.119 1.141.144 2.344.013 1.175.006 2.905-.268 5.759 0 0 .291-1.38.524-2.777.239-1.396.415-2.807.415-2.807zM188.523 438.638s1.125-.508 2.224-1.06c1.101-.551 2.173-1.146 2.173-1.146s-.879.446-1.773.864c-.894.421-1.802.809-1.802.809l-.822.533zM238.009 303.225l.138 1.91.194-8.67zM238.288 307.047l-.141-1.911.141 1.911zM193.731 434.933s-1.614.778-3.274 1.443c-1.656.678-3.351 1.243-3.351 1.244l-1.628.705-1.653.655s2.57-.776 5.046-1.803c2.487-1 4.86-2.244 4.86-2.244zM230.299 384.758s-.044 1.69-.188 3.378c-.134 1.688-.368 3.367-.367 3.367.102-.664.539-3.285.691-5.289.162-2.003.157-3.361-.136-1.456zM238.269 250.27l-.235-8.482-.061.866.235 8.455zM228.721 330.305c-.47 4.815-.127-13.91-.543-4 .073 8.816.319 5.239.543 4zM232.364 227.907c.152-1.147.353-2.349.547-3.508a40.076 40.076 0 0 0-.547 3.508zM232.364 227.907c-.256 1.849-.447 3.709-.511 5.431a57.211 57.211 0 0 0 .014 4.539c.204-4.594.107-6.318.497-9.97zM255.123 193.3s-.73.432-1.446.888c-.718.453-1.415.938-1.415.938 1.359-1.084 1.735-1.354 1.425-1.158-.303.205-1.277.892-2.463 1.894-2.842 2.21-2.53 2.264-2.801 2.601-.502.515-.984 1.04-1.498 1.617a53.719 53.719 0 0 1 2.063-2.084c4.259-3.564 7.328-5.088 6.135-4.696zM374.489 195.735c1.139-.892 1.797-1.43 2.491-1.607.176-.16.323-.301.427-.408-1.661.017-2.324.541-3.086.672.677-.033 1.093-.014 1.458.002-.401.374-.713.664-1.29 1.341zM374.321 194.392l-.489.029c.192.011.337-.004.489-.029zM227.81 235.099l-.08-1.258a48.447 48.447 0 0 1-.077-2.912c-.011-2.125.179-4.256.178-4.256 0 0-.1.777-.168 1.556-.077.778-.123 1.558-.123 1.558s-.006 1.353.07 2.696c.028.672.088 1.341.125 1.841l.075.775zM362.564 207.399c1.639-1.606 4.228-4.218 5.593-5.406.208-.727-7.227 7.008-5.593 5.406zM381.731 187.384c-1.006-.224-8.796-.09-12.052-.176 2.303.023 4.456.204 6.291.31 1.886.106 3.575.138 5.761-.134zM338.532 233.558c1.639-1.605 4.307-3.926 3.44-2.632 2.231-2.483 4.965-6.128-3.44 2.632zM385.032 194.962l1.387-1.212 5.238-5.569zM374.953 182.058l-1.265.042-.608.042a6.38 6.38 0 0 0-.713.087c-.271.059-.153.121.203.183.179.031.417.063.697.094l.45.048.768.048 3.333.191c2.177.127 3.938.252 3.646.369-.146.058-.8.114-2.154.167l-2.58.077-3.54.072 8.363.104c2.027.015 3.316.01 4.106-.007 1.578-.036 1.153-.125.46-.226-1.373-.202-3.902-.453 7.811-.417-6.728-.073-11.751-.248-15.026-.426-3.263-.179-4.709-.361-3.951-.448zM393.93 182.931l6.419.038-6.419-.038zM307.98 278.06c-.486-.884-.538-1.636-.491-2.287-.104.821.08 1.626.491 2.287zM365.922 220.969l9.628-10.553c-6.433 7.048-23.408 23.986-21.892 23.39 5.585-5.397 12.07-12.126 14.585-15.04l-2.321 2.203zM369.525 235.545l-4.174 4.539 5.49-5.382c-1.626 1.487.857-1.672-1.316.843zM371.902 233.66l-1.061 1.042c.242-.22.58-.549 1.061-1.042zM323.064 258.97c3.292-3.227 5.888-5.848 8.779-8.903-1.32 1.147-9.524 9.188-8.779 8.903zM399.529 204.202l-7.111 7.268 7.809-7.877zM400.389 159.196l-1.154-1.328-6.132-5.801 1.175 1.347zM381.077 206.096c-4.932 4.833-8.339 9.067-6.975 7.878l9.449-9.485c-2.762 2.038-2.616 2.637-8.194 8.032l5.72-6.425z"></path><path d="M291.731 170.517c2.989-.342 17.621-.144 18.387.181-1.966.141-9.898.276-4.916.483l11.577-.84c15.397.523-11.704 1.104-19.31 1.4 15.688.108 20.337-.444 37.023-.44a178.157 178.157 0 0 1-10.632-.465c-.566-.591 14.981-.329 26.097-.376-7.076-.257-2.982-.473 2.173-.705a29.05 29.05 0 0 0 1.982-.092l1.75-.083-1.333.001c.095-.066-.2-.146-1.161-.256-9.327.172-16.459-.322-22.464-.33 5.933.961-20.448.222-27.997.518l-8.716.095-3.261.002c-.655-.105.272-.238 5.244-.428-4.172.192-17.938.118-16.759.437l-1.53.028c-.973.035-2.365.088-4.029.249-3.328.294-7.752 1.017-12.036 2.278-4.293 1.232-8.416 2.985-11.388 4.516-2.973 1.534-4.844 2.749-4.844 2.75l-2.63 1.541c-.985.751-1.112.928-.955.868 0 0-.498.347-1.4 1.04a62.8 62.8 0 0 0-3.8 3.133 65.371 65.371 0 0 0-11.416 13.304c-3.959 6.091-7.522 13.988-9.215 22.958a64.896 64.896 0 0 0-1.126 10.39l-.025 1.777v1.588l.006 12.832.031 68.795c.076-6.788.295-12.659.401-19.659.638 10.505.115-11.476.719-8.394.219 4.722.15 11.633.003 15.749.305 1.533.575-4.333.939-3.655.383-17.354-1.075-20.009-.854-36.974.365.672.685 5.916.635-5.188l.079 2.822c-.409-17.782.826-13.854-.176-25.047l.527.294-.128-3.374a56.564 56.564 0 0 1 .06-4.254 59.343 59.343 0 0 1 1.28-9.485c1.375-6.484 4.059-12.729 6.447-16.942l-.194.554c3.202-6.001 6.008-9.408 8.082-11.818a54.706 54.706 0 0 1 5.176-5.19c1.603-1.392 3.321-2.821 6.297-4.869a65.859 65.859 0 0 1 5.646-3.449 63.963 63.963 0 0 1 8.806-3.967s-.823.326-2.035.859a67.796 67.796 0 0 0-4.347 2.14c-3.108 1.66-5.971 3.679-5.971 3.679 4.514-2.664 7.418-4.037 10.001-5.243 2.597-1.166 4.913-2.136 8.6-3.01-.251.114.071.161-.405.402-.472.255-1.761.642-5.104 1.815 0 0 .538-.203 1.487-.535a59.304 59.304 0 0 1 3.987-1.225c3.329-.92 7.887-1.787 12.507-2.057 2.396-.137 4.404-.153 6.404-.219l5.414-.15 5.281-.146c8.069-.399-1.635-.389-2.891-.613z"></path><path d="M334.492 171.301c1.789.028 3.822.04 6.222.02l-6.222-.02zM215.062 327.33l-.005-9.666c-.032 2.994-.042 6.116.005 9.666zM375.174 170.15c-.602-.136-.467-.231-.344-.318.141-.086.3-.165.156-.266l-7.625.01c.094.203-1.983.431-1.562.616l8.02-.021 1.355-.021z"></path><path d="M361.284 169.193c-.711.142-2.934.268-5.422.388l11.499-.005c-.072-.153-1.361-.292-6.077-.383zM363.506 180.033l-3.716.019-5.622.156zM305.385 179.14c4.438.308 12.859.074 15.676-.004-9.704.01-5.499-.107-15.676.004zM317.378 182.44l-9.354.175.872.06zM214.598 396.808a52.292 52.292 0 0 1-1.43 3.878 38.28 38.28 0 0 0 1.43-3.878zM216.635 318.503c-.592 22.314-.492-14.62-1.25-7.61l.251 12.144-.203-1.033.066 14.809c.348-3.038.37-5.321.735-4.66-.143 19.77-.434 6.232-.895 20.736l.066 22.098-.109-1.789c.008 1.861.054 2.684.113 3.322l.01 3.199v1.641a49.447 49.447 0 0 1-.371 5.889 48.178 48.178 0 0 1-2.396 10.121 48.554 48.554 0 0 1-5.343 10.67 49.252 49.252 0 0 1-7.796 9.073 49.314 49.314 0 0 1-8.427 6.172 48.438 48.438 0 0 1-6.66 3.204c-1.664.649-2.642.944-2.642.944-2.812.957-3.868 1.204-3.92 1.321-.058.1.864-.017 1.88-.192 1.019-.166 2.126-.41 2.462-.401.333 0-.083.315-2.21 1.049a51.06 51.06 0 0 0 10.634-4.207c3.509-1.871 6.793-4.19 9.472-6.584 5.409-4.78 8.299-9.658 8.323-10.316-.183.441-.504 1.357 1.105-1.016 0-.001.955-1.817 1.726-3.703.79-1.88 1.404-3.809 1.405-3.809 0 0-.764 1.769-1.674 3.462a48.305 48.305 0 0 1-1.936 3.316c.915-1.809 2.336-4.618 3.559-8.043a52.159 52.159 0 0 0 3.092-17.347l.065-6.01c.056-3.657.133-6.5.226-7.834.102 8.386.333 10.474.49 13.387.07 1.413.134 2.829-.078 5.317-.246 2.449-.687 5.916-2.406 10.85.475-.818 1.893-4.438.598.136a50.355 50.355 0 0 0 2.014-8.931 52.085 52.085 0 0 0 .447-6.744l-.002-2.465-.017-19.663c-.02-13.101-.093-26.325-.404-40.503zM116.85 343.31l.066.217c-.035-.495-.062-.655-.066-.217zM116.76 352.498l.714 13.343-.057-20.803-.501-1.511c.127 1.839.381 9.132.185 11.959l-.341-2.988zM117.91 381.3c-.221-10.675-.805-10.142-1.076-4.266-.274-9.865.634-5.205.011-11.998-.426.222-.176 12.382-.098 15.176.001-.001 1.159 1.126 1.163 1.088zM160.178 429.895s-.674-.021-1.347-.08c-.674-.042-1.347-.117-1.347-.117s1.626.34 3.275.555c1.647.231 3.311.33 3.311.331 0 0-.984-.131-1.957-.305-.973-.173-1.935-.384-1.935-.384zM157.485 429.698s-1.617-.323-3.204-.765c-1.591-.428-3.144-.977-3.144-.976.377.308.747.634 1.753 1.056 0 0 1.144.232 2.294.397 1.149.178 2.301.288 2.301.288zM136.155 419.566a52.381 52.381 0 0 1-6.807-6.748s1.522 1.856 3.239 3.536a49.42 49.42 0 0 0 3.568 3.212zM142.277 423.932l-.153-.181s-1.574-.926-3.062-1.983c-1.496-1.045-2.907-2.202-2.907-2.202a51.49 51.49 0 0 0 6.122 4.366z"></path><path d="M151.137 427.958c-.437-.375-.92-.747-2.37-1.478-1.434-.763-3.889-1.791-7.899-4.237l.617.761.639.748s2.137 1.284 4.399 2.332c2.255 1.061 4.614 1.873 4.614 1.874zM253.186 189.086s-1.645 1.029-3.196 2.186a54.824 54.824 0 0 0-3.021 2.409l.677-.46s1.473-1.245 3.053-2.357c1.569-1.126 3.223-2.131 3.223-2.131l-.736.353zM227.764 224.437a43.497 43.497 0 0 0-.461 4.689c.159-2.017.366-3.616.461-4.689zM229.629 259.782c-.416 9.938-.55-13.71-.734 4.693-.387 1.622-.886-7.005-.693-15.67.364.688.233 8.443.605 3.116-.421-5.755-.134-7.944-.683-5.938-.171-4.841-.354-7.531-.539-9.832l-.252-3.236a40.555 40.555 0 0 1-.028-3.789 69.015 69.015 0 0 0-.202 4.545l-.005 5.819-.045 13.547c-.022 9.463.013 19.321.365 26.748.66 8.188 1.561 3.222 2.514 3.255.222-1.233.328-22.458-.303-23.258zM230.58 244.145c.047-4.6.009-6.005-.07-8.827-.327.761.055 5.11.07 8.827zM223.403 349.844c.136.878.304 9.199.538 7.41l-.171-12.615c-.023 2.96-.188 4.004-.367 5.205zM223.697 339.106l.073 5.532a156.04 156.04 0 0 0-.073-5.532zM223.319 350.443l.084-.6c-.028-.177-.058-.144-.084.6zM120.717 397.64c.152.027-.244-1.104-.696-2.564a62.624 62.624 0 0 1-1.229-4.471c.356 1.992 1.013 4.778 1.925 7.035zM116.795 188.567l.208-4.966c-.124 1.755-.186 2.655-.208 4.966zM109.65 112.031c-.051-.145-.094-.511-.134-1.005.033.494.077.839.134 1.005zM109.516 111.026c-.217-3.394.121-13.871-.21-17.637l.101.478-.197-7.01c.03 6.571-.011 20.364.306 24.169z"></path></g></svg>