<svg xmlns="http://www.w3.org/2000/svg" width="512" height="512" viewBox="0 0 512 512" id="arrow"><g fill="#202020"><path d="M279.233 67.896c-2.155-2.076-3.782-4.142-2.887-3.444-4.577-4.043-4.366-4.439-5.44-4.481-3.02-2.513-5.62-5.815-2.264-2.877l-8.292-7.661 4.689 4.849c-1.424-.717-5.589-5.514-8.102-7.712l1.606-1.28-.768 1.164-.338.527c.002.001.002.002 0 .001l-.013-.006-.046-.023-.105-.053a9.936 9.936 0 00-.188-.088 2.008 2.008 0 00-.272-.094 1.645 1.645 0 00-.464-.039c.179.075.317.13.471.212l.222.13.162.097.073.045.025.016.004.002.003.001c.017-.023-.05.075.087-.139l1.146-1.755-1.778 1.452 7.445 7.372-.574-.29c2.119 1.813 5.874 5.695 7.145 7.087-.28-.14-.261.109-1.797-1.401 10.392 10.457 3.559 2.058 12.351 10.565a44.478 44.478 0 01-2.101-2.177zM287.038 77.802l4.174 3.098 5.962 6.239c.255-.117 4.849 4.178 2.003 1.005-.617-.559-1.835-1.667-2.758-2.623 1.082.28 8.313 7.912 6.926 5.713-4.931-4.718-5.583-5.547-8.878-8.19-4.386-4.46-7.515-7.773-9.433-9.985-1.374-1.251-1.805-1.19-3.522-2.809.374.364.719.698 1.148 1.117l-.423.783c1.519 1.264 2.773 2.639 4.329 4.17l-7.846-6.436c1.738 2.867 9.086 9.552 11.654 12.59-2.968-3.984 3.023 2.517-3.336-4.672zM281.512 70.25zM248.587 381.331c-.015-2.147-.217-2.78-.318-3.09l.008 12.088.001 2.255a80.911 80.911 0 00.253 6.264c.188 2.34.407 3.89.407 3.89.057-.403-.053-2.399-.036-3.697.018-1.299.069-1.893.325.484.025-1.073-.115-3.219-.214-5.222-.097-2.025-.202-3.798-.36-4.266l.342 1.752c-.438-5.57.422-9.375.681-5.743l-.004-.47-1.685-15.428c-.099 5.665.579 4.363.6 11.183zM230.36 64.567c-2.16 2.27-2.375 2.6-2.064 2.407a60.552 60.552 0 002.064-2.407zM247.591 366.543l-.527-4.832c.142 1.934.331 3.634.527 4.832zM255.951 399.562c.028.006.058.053.084-.07l-.225-1.003-.211-1.008.003.052c.11.748.229 1.416.349 2.029zM245.61 256.848l-.037-1.586c.004.578.019 1.1.037 1.586zM287.748 448.636s-2.056-1.286-4.013-2.733c-1.967-1.433-3.825-3.019-3.825-3.019 1.092.729-2.327-2.481-.662-1.255-.572-.469-3.025-2.923-2.463-2.156l1.385 1.422c-2.039-1.595-2.542-1.84-3.333-2.39-.766-.577-1.886-1.417-4.675-4.756 2.876 4.595 4.861 6.077 7.043 7.902.713.649 1.311 1.193 1.914 1.744 0 0 1.657 1.24 3.378 2.362a69.412 69.412 0 003.487 2.146l1.764.733zM231.137 76.718l.045-.121c-.063.089-.064.116-.045.121zM231.356 76.106l-.174.491c.329-.488 1.817-2.128.174-.491zM248.044 368.318c-.13-.146-.289-.767-.453-1.775l.396 3.605.057-1.83zM249.572 376.521l.1 9.055.363 3.338c-.138-3.465-.233-7.518-.463-12.393z"></path><path d="M245.199 271.149c-.107-18.755.823 4.607 1.021-4.01-.097-5.208-.487-7.045-.61-10.291.334 14.876-1.287-2.017-1.08 12.986-.707-2.134-.771-10.82-.579-15.91.681-5.763.499 5.034 1.167 6.34-.111-6.021-.235-4.96-.615-7.515.158-9.453-.837-19.559.107-25.204-.15-6.842-.476-6.392-.835-10.327-.729-.783-.383 10.177-.957 12.712.062-.525.185-1.55.287-1.253l-.153 5.916c.254-5.616.729.78.786 3.782.015 2.183.047 6.522-.154 5.926l-.157-3.306c-.23 4.255.532 9.388.137 13.881-.164.235-.241-1.465-.342-1.723.498 5.035.469 9.891.821 17.343l-.723-4.32c.8 5.962.573 19.461.15 28.815.123-1.037.208-2.907.348-1.784.173 5.494-.323 9.645-.704 7.1.6 5.368-.505 20.452.274 27.769l3.675 33.635a80.379 80.379 0 0 1-.199-3.997c.635-3.058.558-4.706 1.156.652-.336-5.26-.846-3.25-.872-11.153.319 3.101 1.048 3.883 1.123-3.687-.634-18.926-2.439-31.469-3.361-49.145.489-.652.352-14.529.467-21.274.525 2.574.675 7.58.781 12.774l.07-13.035-1.029-1.697z"></path><path d="M246.843 315.095c.044-.473.068-.963.091-1.465-.041.268-.072.705-.091 1.465zM246.143 287.465c.019.065.033.042.053.065l-.038-1.648c-.004.558-.011 1.188-.015 1.583zM249.148 363.884l.319 3.077-.128-2.396c-.065-.796-.131-1.175-.191-.681zM248.288 367.669l-.201-.601-.043 1.25c.108.131.199-.01.244-.649zM249.622 199.478l-.106-1.798c.008 1.083.051 1.55.106 1.798z"></path><path d="M246.03 250.257c.047 6.522.73.78.733 10.008l.044-2.708c.313 6.62.169 18.256.194 26.123-.291-.888-.354 4.771-.805 3.851.106 5.377.207 10.702.672 13.473-.152 3.331.258 8.393.065 12.628.273-1.788.924 6.029.59-4.278.037.832.1.311.138 1.133.381-6.641-.265-9.303-.274-15.023.269-3.419.435 5.593.543 2.366-.251-7.143.325-22.413-.69-21.94-.071-5.198.152-5.916.338-7.466-1.081-8.223.464-30.515-.918-30.44.055 3.002.025 7.894.321 12.298l-.951-.025zM249.077 352.929l.014-1.269-.014 1.269zM257.641 436.191l-1.158-1.018-1.144-1.045a76.502 76.502 0 01-7.847-18.055c-1.489-5.292-2.562-10.453-3.126-17.828.048-1.135.24.649.362 1.549a73.489 73.489 0 01-.282-4.095 96.1 96.1 0 01-.069-4.329l-.011-8.505c-.018-5.634-.074-10.942-.282-14.417.007-3.038.294-11.013.56-7.995-.08-1.478-.157-3.168-.128-4.868.324-.45.093 3.805.358 3.902.022-1.348.085-1.873-.018-2.183.279 2.268 1.102-2.353 1.081 8.223-.759 4.095-.088-7.335-.925-4.917-.006 3.508.318 3.1.42 3.399-.019 4.471-.229 4.354-.42 4.115.26 1.713-.102 7.335.292 9.7.065 8.693-.628-.473-.619 5.205l.848 3.272-.08 4.72-.028 1.748-.005 1.621.025 1.582c.242 3.661.608 5.335.839 6.062.248.726.412.507.589.354.179-.152.364-.237.673.729.325.962.711 2.986 1.709 6.961-.852-2.048-.451 4.68 2.25 12-.863-2.151-2.095-5.228-3.092-8.571-1.012-3.336-1.775-6.934-2.047-9.932.319 4.243-.215 1.374-.638-2.047-.426-3.415-.557-7.376-.856-5.146.273 2.104.595 4.899 1.052 7.834a141.577 141.577 0 001.623 8.692l-.503-1.73c.623 2.857 1.528 5.278 2.602 7.904 1.085 2.625 2.326 5.461 3.918 9.142 1.807 3.549 1.302 2.978.781 2.455 1.682 2.949 3.451 5.403 3.296 5.512zm-4.398-7.527s-.573-1.212-1.102-2.443a80.584 80.584 0 01-1.021-2.478c.354 1.229 1.153 3.068 2.123 4.921zM327.302 120.57c.113.015.25.013.355-.003-.084-.009-.215.007-.355.003zM258.681 408.745l-.321-1.494-.29-1.501c.195 1.177.403 2.135.611 2.995zM254.002 343.398l-.198-4.199a51.69 51.69 0 00.198 4.199zM305.203 98.912l-.096-.104-.5-.437.596.541zM255.985 213.995c.071-.64.136-1.357.187-2.339-.084.117-.144.991-.187 2.339zM254.039 344.172l.016-.255-.053-.519.037.774zM269.711 437.304c.438.519.841.987 1.331 1.526a62.323 62.323 0 00-1.331-1.526zM269.061 432.347c.415.57.828 1.103 1.165 1.506l-1.165-1.506zM309.559 460.632l-1.737-.412-1.727-.457c1.68.513 2.707.733 3.464.869zM275.486 441.207c.194.148.386.299.526.388-.415-.397-.637-.563-.526-.388zM320.595 107.63l.168.164h.14l-.308-.164zM313.069 101.848l-2.454-2.354a62.002 62.002 0 002.454 2.354zM257.348 157.777c.123-1.025.27-3.43.41-2.307-.178-1.961-.606-1.831-.41 2.307zM335.576 122.737c.151-.536.278-1.143.341-1.783.033-.32.047-.649.046-.98 0-.304-.026-.729-.059-.921l.032.3.012.535a9.671 9.671 0 01-.042.854 9.43 9.43 0 01-.241 1.385c-.191.731-.308 1.04-.089.61zM335.905 119.052a7.636 7.636 0 00-.149-.992 8.156 8.156 0 00-.243-.896 8.095 8.095 0 00-.723-1.589 8.886 8.886 0 011.115 3.477zM264.383 183.845c-.059.254-.105.649-.121 1.185.115-.157.14-.585.121-1.185z"></path><path d="M308.768 97.455c-.574-.289-11.339-10.433-2.619-1.566-.784.105-5.847-5.436-8.302-7.67 1.599 1.807-1.132-.561-.774.115 1.217 1.109 2.727 2.363 4.617 4.317.681 1.086-2.374-1.691-4.575-4.045 2.571 3.041-3.913-3.208-.122.943 8.646 8.332 14.806 14.169 21.425 19.488-4.945-4.731-10.491-10.011-14.28-14.159l2.053 1.283c4.146 4.824 7.168 7.34 11.544 11.788l-9.705-10.114c-4.322-4.962-1.144-1.93 2.586 1.659-.897-.905-1.688-1.742-1.848-2.039zM318.821 100.757l-.155-.177c-.159-.131-.349-.302-.457-.378l.612.555zM307.529 471.474l-1.298-.122c1.062.189 1.401.196 1.298.122zM322.868 108.531l-.007-.007a.642.642 0 01.007.007zM335.088 457.38c.064.058.131.115.238.226-.148-.164-.161-.153-.238-.226zM323.313 465.288c.06.028.076.054.219.087.704-.001.364-.038-.219-.087zM335.02 457.376c.013-.01.001-.052.068.004-.042-.026-.124-.094-.068-.004zM264.088 355.357s-.094.46-.184 1.185c.051.28.11 0 .184-1.185zM263.282 384.107l-.06.525.06-.525zM254.898 164.577c-.008 1.423.006 2.49.029 3.39a71.68 71.68 0 00-.029-3.39zM335.326 457.605c.406.452.991 1.13 1.6 2.47-.674-1.476-1.271-2.101-1.6-2.47zM261.34 311.522l.059.884.027-.525-.086-.359z"></path><path d="M261.74 296.519c.061.512.125.747.182 1.034-.227-5.354.02-15.192-.56-16.357.015 1.817-.325 11.237-.665 9.632.145 3.733-.261 9.251-.166 11.261.316-6.128.488-.662.684 3.476-.168 3.762-.465-.708-.572 2.532l.064 8.705.076-7.583.557 2.304-.053-.773c-.259-12.831.815-1.091.453-14.231zM261.922 297.553c.035.803.077 1.508.137 2.056-.01-1.211-.067-1.681-.137-2.056zM262.84 245.137zM249.994 395.386c-.08.115-.133 2.075-.013 3.986.112 1.911.394 3.762.596 3.664a75.75 75.75 0 01-.485-6.774l-.098-.876zM260.352 102.348l-.01 2.503.066.486c.063-.509-.015-2.156-.056-2.989zM260.496 288.518c.066 1.37.133 1.98.201 2.31-.033-.887-.088-1.706-.201-2.31zM261.369 101.879c.123-1.061.309-2.624.473-2.845.004-2.17-.221-3.694-.301-5.903.063 2.493.02 5.377-.172 8.748zM261.533 92.951l.008.179-.008-.179z"></path><path d="M250.124 390.901l-.09-1.987.114 1.034.13-5.143-.068-2.117c.015.333.061.591.107.75l.05-1.647c-.443-4.095-.767-14.285-1.027-17.226-.189-3.889-.297-8.649-.263-11.636-.009 2.768.08 6.441.325 5.339.255-5.619.99-8.351.358-18.048l.01 5.688-.951-12.788c.394-4.479.474 6.383.817 8.158-.469-9.946.783-18.218-.04-22.828.488-.649 1.303-1.739 1.254-8.266-.557 4.706-.358-3.912-.954-.052-.279-2.255.176-7.28-.189-7.655l.202.61c.773-11.143-.438-14.791-.837-19.559-.199-13.342.117-19.47.035-30.352.327-.427 1.227-3.39 1.192-7.756-.442-2.03-.647-11.877-1.215-12.882-.236 7.805.476 6.386.608 11.058-.595 3.89-.588.353-.943 5.665.231-4.288-.31-19.372.248-24.068l.078 1.658c.339-7.495 1.741-8.928.893-21.415l-.348-5.958c.057.287.123.32.174.473.059-9.753.704-7.09.195-17.858.039.832.102.31.14 1.155.318-6.138-.321-12.328-.455-16.968.473-2.832.465.672.808 2.424.183-10.797-.628-22.449-1.205-29.155l.277-6.96c.195 4.128.694 9.172.979 7.913-.095-3.828-.318-3.087-.228-8.5.303.923.584 3.194.965 5.739.506-11.195-1.072-2.502-.145-10.337.006-3.518-.436-5.56-.801-5.945l.478-6.373c-.465-.708-.492-8.575-.562-13.73-.2-.63-.496 4.15-.316 6.105-.365-.385-.537-5.87-.53-9.397.487-.646.452-6.42.439-11.511-.007-2.545-.008-4.92.064-6.398.072-1.291.218-1.862.505-.949l-.284-16.813-10.432 10.751L235 78.027l-3.999 4.243c-2.629 2.248-7.609 7.208-4.954 3.906-9.022 9.016-12.966 14.375-22.107 23.139-.827.654 4.041-4.053 3.493-3.964-2.788 3.063-5.522 5.652-8.672 8.632a452.75 452.75 0 0 0-5.094 4.873l-2.89 2.86-1.55 1.572c-.246.251-.563.589-.932.871a5.83 5.83 0 0 1-1.2.722 4.847 4.847 0 0 0 1.999-1.59c.283-.375.394-.593.464-.735.068-.011-.115.23-.464.638-.302.378-.979 1.112-1.889 1.561a5.918 5.918 0 0 1-3.266.608 6.08 6.08 0 0 1-3.077-1.225c-.246-.222-.308-.305-.352-.357-.038-.049-.023-.046.03-.008.074.052.43.362.786.584.731.485 1.684.748 1.127.471a5.872 5.872 0 0 1-3.308-3.947c-.423-1.694-.035-3.53.994-4.879.563-.713 1.069-1.12 1.583-1.663l1.529-1.536 2.999-3.042c3.951-4.032 7.726-7.976 11.488-11.927 7.524-7.901 14.999-15.829 23.736-24.535-4.991 4.972-6.417 7.312-6.283 7.552l4.888-4.872c1.652-2.109 5.317-5.772 8.21-9.007.462-.29 2.045-1.688.632-.06 5.051-4.588 8.607-8.562 12.406-12.834 1.9-2.136 3.86-4.348 6.099-6.749 1.119-1.2 2.308-2.448 3.594-3.757l.486-.494.016-.016.281-.231.017-.011.057-.037.088-.056.16-.101.317-.194.363-.211.405-.214.149-.068.075-.033.193-.067.166-.052.365-.112a6.256 6.256 0 0 1 3.989.146l-.178-.041-.297-.075-.269-.063-.147-.028-.048-.005-.101-.011a6.65 6.65 0 0 0-1.326-.028l-.405.044-.414.073c-.128.031-.274.055-.501.127l-.367.133-.344.132-.072.029-.143.051-.009.004-.018.009-.036.017-.071.035c-.104.051-.163.089-.243.134-.251.151-.52.33-.738.485l-.365.259-.033.023-.018.013-.222.182-.004.005-.035.04-.07.08-.141.16-.578.657-2.457 2.796a89153.49 89153.49 0 0 1-6.692 7.613l3.86-3.219-5.871 6.708c4.009-3.503 6.692-7.354 7.491-7.46-.696.891-2.64 2.772-2.513 3.02 3.742-3.471 3.768-4.013 6.412-6.791-6.439 7.848-20.456 21.842-27.821 29.552-1.131 1.241.845-1.185.983-1.467-3.052 3.099-5.118 4.725-8.867 8.719-2.107 2.702 2.053-1.616 3.992-3.493-.004.522-.979 1.466-3.065 3.63-.807.116-11.788 11.543-14.948 13.86-11.246 11.463 2.71-.922-8.524 10.013l-3.706 2.916-4.917 5.352-1.313 1.411c-.037.041-.152.16-.124.136-.046.054-.125.137-.145.167l-.115.172a2.6 2.6 0 0 0-.192 2.433 2.494 2.494 0 0 0 1.392 1.321 2.43 2.43 0 0 0 1.867-.067 2.336 2.336 0 0 0 .583-.385c.07-.063.083-.076.229-.223l1.41-1.417 2.789-2.758-1.521 1.547c-.854 1.191.939-.394 1.774-1.055 5.672-5.333 10.137-10.758 13.867-13.696 5.856-6.695 16.009-17.469 22.968-24.862 2.457-1.415-8.919 9.802-11.579 13.113l6.53-6.534c-4.031 4.044-5.427 5.837-7.551 8.553 5.821-5.627 7.248-7.966 12.543-13.524-.28.564.531-.074 3.039-2.573l.365-1.057c.074-.018.377-.269 1.173-1.019l11.541-11.963c-2.682 2.386-2.923 2.025-6.418 5.512.685-.484.29.032-.675 1.066l-1.83 1.898-1.754 1.766c1.961-2.413-2.625 2.243-2.758 2.004l9.415-9.468c3.657-3.701 7.039-7.153 9.444-9.653l.631-.313.602-.283 3.645-3.602.057 11.029c.023 3.465.033 6.669-.021 9.295l-.239-1.812-.041 8.208.011 6.106c0 3.902-.037 7.69-.257 11.283.515 7.218.943 16.305 1.481 22.205.582 3.155-.729 21.18.089 29.318-.063.548-.438-5.59-.657-8.366-.09 5.413.633 9.717.021 11.414.206-12.148-.488.653-.662-4.819.011 5.688.122 11.685.34 14.475-.005-9.205.846 3.27.579-6.049.515 7.221.72 17.075.521 25.679-.264-.084-.387.976-.496 4.184l.383 2.587c-.069 4.026-.453-7.786-.589.32.655 8.34-.372 25.115.839 28.767-.478 6.356-.484-12.096-1.07-2.516-.438-5.573.063-13.261-.541-15.098.172 5.462-.511 1.994-.517 5.518l.373 6.092.023-1.348c.571 10.223.297 26.42.394 39.476.609 11.058 1.489 18.671 1.423 31.935-.357-3.916-.344 11.016-.999 2.666-.315 6.138.058 12.197.322 12.317.091-5.4.085-1.898.215-6.447.32 3.07.306 10.147.097 13.055.023-1.348-.038-.835-.139-1.132-.215 6.447.318 3.09.452 7.75-.448 1.478-.12 10.288-.352 14.543l.639 6.17c-.42-3.391-.153 5.912-.54 6.885.296 4.425.816 8.135.703 14.873-.219-2.783-.316 6.147-.742 6.265-.408 11.538 1.162 19.108.552 30.036-.1-.34-.38-2.546-.487.649.061 1.248.075 3.008.087 4.72.013 1.652.084 3.324.197 4.588l-.018-.079.021.131c.108 1.238.243 2.009.349 2.029.422 2.133.858 3.722 1.438 5.796.598 2.067 1.309 4.637 2.735 8.576.137-.367-.374-2.21-.915-4.358a140.301 140.301 0 0 1-1.414-6.107l-.43-1.273-.407-1.286c.213-1.304.009-3.173-.167-4.984-.185-1.818-.329-3.521-.203-4.615.214 1.426.354 3.172.596 5.383.235 2.183.563 4.7 1.055 7.301.952 5.208 2.698 10.706 4.579 14.563-.671-2.542-1.874-6.486-2.783-11.084-.932-4.591-1.521-9.833-1.561-14.748 0 0-.073 1.082-.106 2.168-.038 1.085-.041 2.173-.041 2.173s-.088-1.286-.123-2.576l-.029-1.774-.003-.873-.234 2.571a67.306 67.306 0 0 0-.148 2.521 109.334 109.334 0 0 1-.099-3.579l-.021-3.66-.03-7.266c.01 5.703-.662 7.926-.557 4.698.479-6.356-.313-6.624-.283-11.482-.044 2.705-.053 6.223-.332 3.955.585-9.58.205-12.168.83-20.88-.813 1.08-.08-10.886-.747-12.19l-.068 4.043-.492-8.575c.662-7.913.676 7.005 1.145-5.035.082-11.11-.773-10.823-.836-19.559.482 2.878.895 9.806.881 16.854l.232-4.268c.279 2.258.221 12.008.192 16.873-.554-8.04-.17 3.762-.603 7.42.467.672.393-4.49.768 1.605-.01-5.711-.049-6.546.127-13.81-.211 15.701 1.619 14.119 1.227 27.823-.211-6.316-.672 2.203-.898 2.963.057 2.973.167 9.003.283 11.482l.674-2.245c.146 3.993-.139 6.683-.372 9.525l-.083 1.062-.064.998c-.033.68-.047 1.389-.026 2.146.04 1.515.207 3.228.635 5.26.268.507.06-1.296-.082-3.054-.148-1.757-.242-3.47-.178-2.729.469 5.633 1 9.415 1.556 13.077.598 3.646 1.238 7.192 3.03 11.976.435.433.718.197 2.602 3.188-.849-.818.108 1.647-1.899-1.826 1.267 3.175 3.543 6.554 5.34 8.945-1.816-3.032-1.274-2.507-.226-1.093 1.06 1.411 2.812 3.586 3.306 4.017 2.163 2.905-1.036-.593-2.369-2.409 1.53 2.48 3.277 5.591 4.842 6.449-.116.18-1.699-1.167-3.561-3.235-1.871-2.057-3.964-4.87-5.367-7.252 0 0 .443.819.914 1.624l.956 1.6c-1.542-2.064-1.774-2.501-3.448-5.805 1.404 3.358.979 3.215.273 2.622-.178-.452.218.186.049-.246-1.369-2.69-2.41-4.757-2.326-4.023-.831-1.116-.487-.119.196 1.393.681 1.514 1.757 3.5 2.164 4.461a70.314 70.314 0 0 0 2.577 3.886s2.588 3.051 5.487 5.724c2.873 2.71 6.013 5.017 6.013 5.018 2.475 2.188 4.302 3.725 5.975 5.145 1.679 1.409 3.214 2.692 5.265 4.125l1.423.285c4.91 2.979 9.964 5.079 6.294 4.203-.122-.238-.838-.514-1.957-1.091-.18-.013-.461-.1-.806-.231-.121-.029-.194-.034-.296-.054 5.635 2.681 9.406 3.676 9.734 3.801-2.551-.679-3.854-1.083-4.438-1.172-.58-.101-.434.088-.028.387.806.603 2.687 1.577 1.693 1.671 0 0 2.578.896 5.216 1.575 2.632.7 5.31 1.172 5.31 1.172-6.342-1.763-.034-.358 2.271-.117.271.298 2.422.682 4.986.891 2.564.226 5.531.232 7.426.261l-.279.099.446.024c-.063.01-.028.009-.014.013l.048.002a.41.41 0 0 0 .201-.05.566.566 0 0 0 .295-.387c.094-.381-.258-.7-.512-.669-.004.041-.058.111-.104.214l-.019.041-.004.009c-.057.003-.051.007-.08.011l-.126.021-.551.088-1.396.173c-1.968.233-4.378.362-5.957.423 4.313.535 5.206.553 5.083.687-.12.107-1.248.177-.906.345-.904-.067-2.529-.209-2.725-.167-1.266.027 1.684.336 1.924.498 1.185.047 2.314.066 3.542.062l.83-.01.197-.004.099-.001.065-1.764.003-.071c.009-.074.016-.074.009-.061-.019.044-.054.065-.01.032.054-.032.053-.008-.099-.003.198.012.124.021.101-.003-.037-.023-.028-.026-.01.003.02.026.024.062.015.014.015-.009-.039-.024.029-.05.021-.014.096-.022.072-.032l-.196-.035-.024-.004-.012-.002-.006-.001c-.029.216.243-1.891.127-.999l-.003.001-.044.007-.086.014-.167.029-.313.06.442.051.108.01.054.005H327.239c.116-.734-.156 1.001-.128.822l.004.001.015.003.029.005c.063.014.187.029.2.04a.586.586 0 0 0-.111.04c-.007.009-.001.016-.001.025l.005.027c.006.02-.004-.012-.019-.033-.059-.056.044.025.037.015.026.018-.088-.056-.046-.026a.229.229 0 0 1 .029.051c.016-.004-.044-.018.026-.072.011-.019.161-.024.017-.042l-.127-.022-.032-.006-.016-.003-.008-.001c.056-.279-.133.623.125-.626h-.004l-.059.001-.476.004c-2.557.015-5.442-.167-8.671-.595l-1.027-.351-1.02-.365c0 .001-1.618-.2-3.226-.487-1.609-.276-3.204-.639-3.204-.639 1.349.231 1.649.133 2.445.164.799.016 2.079.217 5.442.674-.402-.255-2.065-.466-4.124-.831-2.059-.36-4.512-.897-6.477-1.576 0 0-.549-.029-1.097-.06l-1.1-.08c.438-.009-1.455-.748-2.656-1.34-1.2-.6-1.754-.914 1.259.02 0 0 2.439.794 4.925 1.383 2.481.61 4.998 1.008 4.998 1.008l-1.34-.483-1.325-.512s2.079.505 4.188.862c2.104.372 4.23.597 4.23.598l-1.019.011-1.021-.005c3.422.412 5.394.528 6.633.679 1.24.136 1.749.274 2.264.404.257.063.516.129.868.177l.284.036.158.016.083.008.043.004.021.002c-.057.848.131-1.896-.126 1.899l.003.001.006.001.012.002.203.036c.069.012-.043.02-.056.035-.07.028-.016.042-.029.054.018.06-.013-.027-.031-.039-.007-.006.019.019.048.03.015.007.018.005-.015-.001l-.089-.008h-.032c-.003.058.004-.129-.007.129l.031-.176.016-.079.013.044c.009.025.024.067.033.077.144-.036-.034.03.005.022a.196.196 0 0 0 .032-.054s-.006.016-.012.069l-.15 2.658-.571.013c-3.484.036-7.55-.221-12.737-1.247 3.771.585 3.988.409 3.611.235-.376-.195-1.323-.507.109-.501-3.79-.657-6.303-1.175-8.385-1.562-2.077-.399-3.721-.685-5.666-1.21-.879-.482-1.609-.927-1.323-.936.293-.025 1.578.448 4.865 1.442.514-.235-1.663-.802-3.967-1.593-2.309-.773-4.728-1.799-4.857-2.27-5.155-2.286-8.597-4.245-11.361-5.822-2.754-1.598-4.817-2.856-6.915-4.296-2.084-1.453-4.215-3.091-6.826-5.74-2.58-2.663-5.712-6.335-9.027-12.197l.785.697c-4.644-7.136-7.121-13.508-8.839-19.832a75.672 75.672 0 0 1-1.909-9.746 81.105 81.105 0 0 1-.628-8.006l-.052-2.737.771-11.162c.118 2.496.694 9.208 1.065 6.075a53.529 53.529 0 0 0-.415 4.131l-.11 2.105c-.03.729-.045 1.536-.042 2.308.008 3.124.26 6.302.566 9.514.298.616.035-1.991.042-3.133.225 1.917.365 3.364.589 4.959a37.244 37.244 0 0 0 1.278 5.794c.046-.277-1.042-5.729.023-1.679 0 0 .299 1.709.691 3.405.384 1.697.859 3.378.859 3.378 1.718 4.337 2.55 5.221 3.303 6.345.39.556.792 1.158 1.405 2.221.619 1.06 1.439 2.585 2.813 4.91-1.428-1.462-4.054-4.766-5.844-8.64.99 2.305.227.817-.533-.742-.748-1.562-1.482-3.204-.762-1.011 1.666 3.249 2.892 5.63 4.343 8.237 1.474 2.586 3.166 5.427 6.263 9.104-.754-.841-1.055-.989-2.456-2.901 0 0 1.937 2.914 4.169 5.613 2.204 2.722 4.689 5.202 4.689 5.202-1.1-1.355.992.65 3.459 2.611 2.455 1.981 5.315 3.847 4.953 3.243a81.3 81.3 0 0 1-6.21-5.209 85.004 85.004 0 0 1-3.382-3.296 60.32 60.32 0 0 1-3.396-3.814c-1.375-1.696-3.148-3.977-5.339-7.554 1.321 1.974 3.032 4.095 4.741 5.887 1.704 1.797 3.389 3.273 4.545 4.12.083.118.231.307.578.677 2.148 1.415.452-.518 1.184-1.141-2.795-2.422-4.788-4.81-6.688-7.443-1.888-2.648-3.703-5.544-5.852-9.354-.598-.622-.203.602.698 2.427.896 1.827 2.354 4.214 3.655 5.976 0 0-1.173-1.548-2.255-3.168-1.088-1.615-2.08-3.297-2.081-3.297l.948 1.229c.001-.001-2.424-4.313-4.145-8.941a71.153 71.153 0 0 1-2.103-6.438c-.484-1.782-.745-2.986-.745-2.986.913 3.622 1.636 4.731 2.457 6.489-.801-2.391-1.355-4.835-1.787-7.446-.354.65-.809.397-1.281-2.038a61.34 61.34 0 0 1-.932-8.429c-.109-2.49-.012-4.768.09-6.56.198-3.693.452-6.447.736-8.645l-.035-1.387c-.511 1.997-.917-8.458-1.439-12.148.528.183.317-6.138.586-9.57-.606-1.827-1.442.61-1.937 4.79.554 8.053.559 4.513 1.344 8.317l.524 12.918-.484-2.888c-.106 3.224 0 6.384.055 8.68.026 1.137.04 2.08.018 2.757-.021.655-.09.976-.25.854-.254-1.886-.268-4.066-.317-6.338-.041-2.255-.083-4.507-.293-6.196l-.23 4.265c-.618-7.524.595-3.857.164-12.968-.534 3.352-.038-.825-.396-4.728-.372 3.133.152 16.041-.756 13.303-.396-4.737 1.064-15.939.162-22.208l.103.308c.117-9.248-.401-12.498-.728-15.96.294-3.935-.12-9.368-.153-13.633l.264.104-.11-6.017c.481 2.865-.013 7.051.057 12.22l.491-.643c-.583 5.958.303 9.933.726 14.553-.425-6.725.12-18.99-.839-20.569l.495-4.161-.179-1.99c.372-3.1.955.065 1.066 6.076-.124 1.044-.186 1.565-.288 1.249.219 2.79.6 5.352.487 12.103l-.26-3.603c-.035 8.406.154 16.048.637 18.926.205-12.135.249-24.067.225-35.462-1.108-3.361-1.73-7.349-2.761-9.062-.19-7.646-.332-18.024.045-24.665l.203.61c.105-3.24.05-6.226-.067-8.716.271-3.423.545 2.343.691-.042l-.346-10.95c.467.675.469 9.89.502 14.266-.04-.826-.117-2.493-.18-1.958-.192 5.09.603 14.572-.072 16.798.117 2.479-.498-5.038-.533 3.357-.254 5.622.352 7.453.554 8.04.265.092.362-8.823.681-5.729-.033-4.376-.374-6.118-.119-11.715.032 4.337.568 10.227.158 12.537.493 8.575 1.733 7.345 1.802 3.302-.389.963-.479-15.643-.986-4.398-.5-5.051-.504-14.278-.816-20.887l.1.301-.125-8.203c.139 1.155.257 3.635.52 3.717l-.708-11.362c.476 6.396.33-3.965.54-6.875-.404-1.217-.7-5.655-.932-1.396-.293 4.787.219 2.786.25 7.14l-.638-6.164.063-.528-.522-3.71c.037-8.396 1.213 3.667.703-7.091l-.711 1.4c.105-12.455.905-28.45.577-37.25.404 2.428 1.055 3.498 1.44.16-.123 3.795-.097 11.42-.03 16.863-.125 1.047-.841-6.8-.688-12.713-1.164 2.865.703 14.873-.477 15.568-.412 15.065 1.137 11.238.444 24.025.527.177.257 3.636.722 4.308.86-3.785-.029-17.095.271-25.393.038.813.117 2.447.217 2.767.155-5.932.037-8.383-.158-12.527l-.063.522c-.515-7.24.393-4.48.625-8.741-.078-1.651.074-7.577-.313-6.624l.5-7.717-.588.372c-.034-4.353.354-5.306-.004-9.25l-.526-.183-.183 10.811c-.172-5.479-.504-1.527-.615-7.547.576 6.725.292-4.757.781-5.42l-.296-4.428.14 1.132c.271-3.475-.196-4.138-.127-8.193-.293 4.783-.664 7.916-.29 14.011-.296-4.438-.624-13.238-.642-15.398-.221-4.66.181-7.913.24-12.272.211 8.367 1.596-2.93 1.218 13.835-.101-.31-.078-1.667-.016-2.193-.673 2.235.042 10.05.299 13.685.388-.937.483 2.865.698-3.58-.248 2.114-.864-5.43-.547-11.561l.83 1.08.098-8.927.039.835c.533-3.358-.104-9.525.211-15.672-.297-4.438-.061-21.464-.929-14.139.519-5.518-.142-10.36-.253-16.38l-.339 7.505c-.593-8.872-.21-6.317-1.154-13.417.227-.718.413-2.3.652-.858.043-11.919.278-28.942-.401-35.935l.053-3.315.114-3.991.305-6.806c.1-2.243.188-4.609.226-7.623.038-3.02.027-6.67-.068-11.647a12.922 12.922 0 0 0-.043-.855c1.351 1.09-2.7-3.704 5.927 5.229.323.367-1.814-1.553-2.698-2.242-.886-.691-.592-.225 4.334 4.654 3.411 2.96 7.765 7.438 12.148 11.962l5.287 5.437a85.757 85.757 0 0 0 4.406 4.159c2.844 3.169 8.122 8.324 6.679 7.595-4.681-4.844-11.495-11.509-12.693-12.364.437.221-.358-.678-.803-1.214-.183-.229-.46-.549-.231-.373.202.149.601.487 1.531 1.334l-1.198-1.282-1.57-1.623-2.542-2.57a111.19 111.19 0 0 0-3.192-3.055c-1.746-1.614-3.243-2.958-8.408-8.307-.301-.158 1.08 1.42 2.739 3.209 1.667 1.796 3.623 3.814 4.698 4.762-.034.454-4.797-4.191-8.378-7.63-1.795-1.724-3.299-3.151-3.776-3.496-.484-.352.081.401 2.256 2.868 4.815 4.858 7.848 7.403 11.048 10.233 1.584 1.399 3.18 2.84 4.916 4.531l1.326 1.315.98 1.018c.62.663 1.267 1.389 1.949 2.201-.673-.525-1.396-1.169-2.159-1.879l-1.3-1.236-1.751-1.699c-2.358-2.282-4.873-4.666-6.965-6.246l6.652 7.045.8.689.83.717.456.392.365.3 1.96 1.607-.284-.141c8.234 9.126 8.531 7.527 16.542 15.049-4.16-4.838 1.886.195-1.292-3.397 5.256 5.132 9.006 9.01 8.553 9.533-10.114-9.318-1.067-.036-10.536-8.532 1.3 1.649-2.853-1.425 2.447 3.981 6.379 5.683-1.398-2.21 4.777 3.644.313.399.637.812.355.673 3.021 2.513 3.137 3.319 6.765 6.387l-.892-.696c3.832 4.424 4.851 4.18 8.082 8.056-1.06-1.783 2.683 2.089 5.111 4.066-3.465-3.738-4.895-6.207-12.03-13.285-1.145-.572-.784.106-3.842-2.674l4.654 4.584c-1.043-.95-1.876-1.635-2.848-2.491l-4.288-4.585c5.829 5.42 3.556 2.535 6.244 4.628 5.022 5.272 4.326 4.168 7.47 7.499-.372.047 1.93 2.708 5.032 6.132l5.02 5.476 1.278 1.385.627.68.077.084.005.005-.066-.065.01.01.02.021.04.041c.044.046.137.14.096.101-.044-.033-.02-.004.003.022.154.174.382.291.628.328a1.366 1.366 0 0 1-.459-.089 1.08 1.08 0 0 1-.189-.098c-.045-.027-.133-.108-.072-.052-.032-.02-.132-.108-.189-.155l-.007-.005.066.064-.003-.002-.013-.011-.024-.021-.048-.042-.092-.081-.329-.282-.477-.389c-.241-.185-.335-.229-.319-.166.016.063.142.231.34.47l.718.826c.176.244.463.436.754.524.288.096.535.083.56.123 0 0 .39-.132.631-.404a1.36 1.36 0 0 0 .168-.207l.019-.025.005-.006-.059.06.002-.002.004-.005.008-.009.03-.037.117-.141c.001-.025-.032.013-.009-.033.056-.116.078-.193.078-.193-.129.254-.111.474.209.161.123-.224.169-.446.17-.642.002-.076-.01-.236-.023-.225l-.018-.188c-.007-.006-.012 0-.016 0-.008.003-.024-.063-.038-.087a1.041 1.041 0 0 0-.469-.517l-.137-.067-.071-.029-.203-.16c-.294-.242-.605-.5-.956-.788a56.703 56.703 0 0 1-2.591-2.368c-.087-.55 3.849 2.685 1.333-.074-.707-1.111-3.066-4.543-8.905-9.973-.487-.311-1.997-1.721-3.729-3.377.247.223.552.509.674.599l-3.49-3.994c3.583 2.794 6.263 6.635 9.864 9.443l.646-.103c2.496 2.493 6.045 5.718 7.797 7.081-3.739-3.866-4.638-4.568-8.968-8.743-.358-.832 2.813 1.986 3.27 2.393l-.849-.421c2.381 2.691 4.366 4.497 6.536 6.427l1.672 1.487c.581.485 1.045 1.029 1.364 1.769.643 1.414.521 3.565-1.048 5.052-.988.806-.407.27-.263.025-1.142 1.218-3.074 1.651-4.682 1.051-.823-.284-1.482-.808-2.091-1.469l-1.875-1.902c-2.493-2.532-4.984-5.032-7.708-7.276l1.817 1.422-17.488-15.717-.199.093c.646.821-1.829-1.664-3.102-3.055l.009.005-9.567-8.637a49.394 49.394 0 0 0 2.936 3.308c1.207.865 7.14 7.078 6.695 5.856 2.571 3.041 7.428 7.223 9.341 9.432-3.504-4.004 2.981 2.247 3.854 2.689 1.017 1.508 5.582 5.544 4.76 5.383.655.827-1.624-2.063-3.418-3.461-4.24-3.624 6.928 7.47 1.736 2.864 3.23 2.999 6.873 6.576 10.55 10.168l.722.703a6.79 6.79 0 0 0 1.015.791 6.681 6.681 0 0 0 2.402.938 6.652 6.652 0 0 0 4.863-1.003c1.39-.923 2.376-2.357 2.739-3.903a6.409 6.409 0 0 0-.527-4.442s.178.373.333.964c.155.583.254 1.415.171 2.206a6.275 6.275 0 0 1-.588 2.113c-.257.542-.499.86-.499.86.714-1.028 1.281-2.759.92-4.592a6.262 6.262 0 0 0-1.619-3.135l-.424-.429-.8-.805c-2.103-2.118-3.897-3.956-4.07-4.288 1.073 1.049 2.237 2.187 3.477 3.397l1.918 1.874a6.6 6.6 0 0 1 1.784 3.169c.132.042.104-.73-.421-1.792a6.338 6.338 0 0 0-1.187-1.628l-1.235-1.221c-1.704-1.667-3.48-3.371-3.517-3.637l-8.503-7.269 3.433 3.475c-2.402-1.949-9.351-9.445-14.65-14.85 3.581 2.561 8.088 8.063 13.925 13.49 4.285 3.897-2.033-3.019 1.96.73-.885-1.123-3.425-3.635-4.799-4.753l-1.436-1.62c1.959 1.495 4.849 4.204 7.942 7.134l4.704 4.436 2.296 2.109.557.5.275.245c.088.077.172.15.338.314a8.614 8.614 0 0 1 1.447 1.876c-.559-.944-1.246-1.598-1.528-1.783a8.308 8.308 0 0 1 2.065 6.383 8.193 8.193 0 0 1-2.085 4.663l-.211.224c-.168.173-.223.216-.34.329-.209.19-.429.369-.655.539a8.19 8.19 0 0 1-9.517.129c-1.152-.859-1.373-1.212-1.935-1.698l.669.757.366.386c.152.149.416.383.565.498.7.56 1.4.925 2.065 1.172 1.337.483 2.526.567 3.862.403.21.033-1.921.524-4.306-.492a8.219 8.219 0 0 1-2.138-1.313l-.294-.255-.488-.449a46.113 46.113 0 0 0-1.45-1.284c.866.934 1.324 1.459 1.558 1.76l.042.054.019.025.004.006.071.071.009.012.062.082a.872.872 0 0 1 .072.117c.073.098.091.142.076.158-.025.034-.147-.017.066.218.236.226.621.682 1.94 1.372a8.951 8.951 0 0 1-1.905-1.15c-.742-.62-.853-.772-1.17-1.063l-1.678-1.645a21696.94 21696.94 0 0 1-3.696-3.787c-1.307-1.657 1.467.983 1.394.452-3.08-2.804-3.876-4.699-8.446-8.739 5.63 5.823-2.009-1.009-4.136-2.827l.943.976c-2.085-1.547-3.638-3.077-4.646-4.579 2.455 2.234 4.646 4.579 4.254 3.638-1.56-1.537-3.115-3.068-4.951-4.739l1.792 1.396-7.752-7.638c-1.46-.977-3.836-2.67-5.259-3.38-1.627-2.064-4.38-4.453-6.215-6.12l.915.714c-1.594-1.8-4.321-4.545-6.758-6.893a146.29 146.29 0 0 0-3.256-3.056 39.033 39.033 0 0 0-1.13-.99c-.14-.115-.301-.25-.359-.283a.322.322 0 0 0-.109-.031c-.085-.133-.038-.164.11-.115.042.017.071.02.142.062l.361.275.914.724 4.568 3.694c1.368 1.077 2.265 1.707 1.735 1.007-.264-.349-.885-1.031-1.982-2.154L275 79.385l-2.716-2.673c-1.838-1.835-2.452-2.108-2.793-2.05-.343.058-.493.365-1.193-.099 0 0 .062-.079-.11-.34-1.238-1.337-1.167-.748-1.863-1.224.762.969 1.569 1.787 1.818 1.838-.111.274-.984-.758-1.773-1.551-.001.519.022 1.07.126 1.596-.623-2.677-.238 2.405-.557.776-.101.657-.145 1.475-.147 2.298-.002.412.007.827.024 1.229l.032.592.021.287.023.678c.13 3.673.367 6.87.598 8.976-.781 5.442.104 9.544-.258 18.377.023-1.357-.094-3.821-.01-5.72-.496-5.035-.26 9.152-.713 1.403.078 1.658.264.118.186-1.583-.057-2.973-.273-5.772-.5-5.025l-.438 7.198-.119-2.513-.607 10.924c.1.297.225-.728.285-1.253-.266 12.67.072 27.158-.01 38.259 1.398 2.085.6 27.327 1.457 36.297-.4-2.405-1.107-3.72-1.398-2.232-.059-2-.623-6.095-.506-10.631.225-.725.479-6.327.734-2.721-.158-12.537-.612 1.697-1.133-2.003.137 13.89.955 22.038 1.283 30.806l-.164.222.313 6.621c.092-5.41.885-5.143.607 1.831l-.039-.848c-.333 3.978.059 12.252.006 18.465l.459 4.213c-.053 6.222-.904 6.49-1.416 8.513-.06 9.753.64 15.385 1.055 22.312-.371 3.133-.459 17.741-.91 10.001.327 8.797 2.32 7.022 1.216 22.11l-.358-3.916c.074 14.426.788 34.999.41 41.646-1.289-5.321-1.311 18.019-2.574 20.583.288-.715.385 4.705.539 5.495-.148 1.188-.293 3.165-.031 5.263.254-5.625 1.311 3.955.801-6.8.867 5.442 1.543 12.455 1.5 24.378l-.527-.18.16-9.434c-.389.953-.359-3.902-.539-5.893-.295 17.548-1.233-2.297-1.164 15.643.342 1.732.2.61.336 5.273-.018-2.193-.381-2.588-.389.946l.422 3.394c-.879 6.265-.572-10.37-1.19-5.025-.414-6.928-.636-18.925-1.308-16.69-.244 11.313 1.26 10.178.954 22.006l-.286 1.26c.184 4.155.711 4.719 1.137 6.902-.137.208-.218 1.239.078 3.805.807 3.312 1.632 5.999 2.577 8.563.957 2.556 2.044 4.992 3.607 7.643-1.753-3.671-2.64-6.46-3.244-8.709a44.8 44.8 0 0 1-1.113-5.749 90.665 90.665 0 0 1-.564-5.916 97.392 97.392 0 0 1-.179-4.105l-.121-5.768c.055.697.105 2.004.162 3.583.054 1.627.114 3.313.291 4.995.325 3.346 1.054 6.377 1.475 6.663l-.546-.067c1.166 5.285 2.862 10.393 5.59 16.556.001 0-.515-.895-.995-1.811-.485-.913-.936-1.848-.936-1.848 1.844 4.093 3.458 7.454 5.23 10.488 1.782 3.016 3.742 5.7 6.446 8.038-1.645-1.888-2.908-3.474-3.895-4.667 2.916 3.592 6.847 7.854 10.709 11.073.001 0 2.146 1.484 4.403 2.749 2.245 1.289 4.584 2.352 4.584 2.352-.105.094 1.255.943 2.311 1.571 1.052.629 1.773 1.094.261.587 3.254 1.834 5.889 2.711 8.159 3.295 2.279.576 4.216.853 6.313 1.242 1.821.526 2.345.681 2.063.7-.278.01-1.354-.143-2.677-.399-2.656-.474-6.252-1.539-6.724-1.339 4.96 1.861 10.373 2.944 15.247 3.229a51.827 51.827 0 0 0 4.371.089l.443-.011.238-.004.407.006a9.558 9.558 0 0 1 3.121.649 9.682 9.682 0 0 1 4.514 3.658 9.834 9.834 0 0 1 1.611 4.816c-.016-2.275-.746-3.895-1.256-4.851-.536-.963-.857-1.36-.724-1.316.073.163.513.713.996 1.628.479.909.976 2.214 1.13 3.706a10.092 10.092 0 0 1-.591 4.617 9.923 9.923 0 0 1-2.374 3.614s-.559.674-1.248 1.239c-.681.574-1.478 1.019-1.478 1.019a9.86 9.86 0 0 1-2.714.704l-.58.047a7.95 7.95 0 0 1-.566.014l-.114-.008-.054-.003-.027-.002-.013-.001h-.144l-.207-.022c-.516-.059-.738-.115-.7-.171.037-.056.336-.11.863-.166.439-.023.178-.023.694-.067a9.9 9.9 0 0 0 3.216-.928 10.28 10.28 0 0 1-2.881.767c-1.189.102-1.519.06-2.144.093a82.486 82.486 0 0 1-3.526.025c-2.377-.038-4.776-.246-6.935-.809 3.662.329 7.816.619 11.542.619l.447-.006c.232-.012.536-.03.726-.056a9.528 9.528 0 0 0 3.419-1.071 9.448 9.448 0 0 0 3.243-2.884c1.598-2.261 1.836-4.78 1.594-6.399a9.298 9.298 0 0 1-6.527 9.92 9.188 9.188 0 0 1-2.219.385l-.245.01h-.112l-.338-.003-.231-.008c-2.46-.086-4.501-.32-6.652-.627-2.15-.316-4.414-.7-7.308-1.285-2.889-.598-6.419-1.367-11.021-2.781-.168-.228 3.007.481-.49-.681-4.044-1.365-4.597-1.51-4.521-1.226.084.26.849.831-.474.495 3.119 1.174 5.432 1.937 7.407 2.624 1.979.694 3.631 1.273 5.471 1.92l-1.806-.145c-.237-.175-4.298-1.311-5.421-1.864l-1.21.192c.34-.22-1.06-.964-3.114-1.95l-7.157-3.347c2.272 1.404 3.135 1.879 3.521 2.213.391.326.32.488.853 1.105-3.585-1.188-5.405-2.349-7.282-3.557a124.512 124.512 0 0 0-7.469-4.623c.606.253 6.842 4.074 1.626.505-2.153-1.479-3.117-2.08-3.937-2.522-.814-.448-1.477-.747-2.891-1.808 1.704 1.058 2.431 1.316 3.191 1.595.763.271 1.558.57 3.474 1.52 3.824 2.54 4.677 2.924 5.45 3.381.8.408 1.539.895 5.613 2.758 0 0-1.666-.911-3.275-1.907a78.934 78.934 0 0 1-3.173-2.054c3.345 1.928 4.695 2.372 5.222 2.47.533.086.287-.238.613-.186-2.857-1.58-4.772-2.738-6.214-3.568a59.51 59.51 0 0 0-3.248-1.77c-1.677-.872-2.96-1.345-6.202-4.069-1.677-1.177-.184.128 1.135 1.201 1.324 1.062 2.433 1.943-.215.124-3.067-2.532-3.409-2.831-3.934-3.109-.493-.314-1.188-.591-4.416-3.724l1.224.906c-1.708-2.157-3.809-3.894-5.853-6.336-1.15-1.318-.891-.265-1.466-.284-.286-.015-.791-.295-1.76-1.323-.959-1.032-2.41-2.804-4.346-5.93.501.538.721.71.772.678 0 0 2.827 2.457 5.811 4.548 2.968 2.127 6.059 3.883 6.059 3.883a75.607 75.607 0 0 1-12.368-18.589c-3.331-7.083-5.631-14.954-6.564-22.996.19-1.943.672.902 1.394 4.029.705 3.136 1.741 6.535 1.797 6.01a76.59 76.59 0 0 0 2.129 6.966c-.256-.118-1.631-3.696-2.475-6.532-.851-2.828-1.391-4.855-.92-1.549 1.791 6.253 3.595 10.64 5.651 14.793 2.103 4.123 4.497 8.055 8.529 12.684-.829-1.761-3.244-4.956-5.56-8.859-2.335-3.881-4.517-8.487-5.522-12.334 1.073 3.146 2.303 5.683 3.618 8.062a74.966 74.966 0 0 1-6.743-22.646l-.459-1.844c.6 5.647 1.619 9.469 1.7 9.967-1.867-7.305-2.656-13.655-3.327-14.129l.079 1.355-.201-1.371-.176-1.376c-.031-1.8.005-3.612.053-5.367zm-30.17-314.757c-.282.368-.489.674-.616.925.131-.261-.13-.084.616-.925zm96.061 382.954a69.847 69.847 0 0 0 9.593 1.019l1.845.051c.918.063 1.785.49 2.396 1.159a3.55 3.55 0 0 1-.01 4.822 3.5 3.5 0 0 1-2.256 1.094c-.426.027-1.076-.004-1.667-.014l-1.785-.067c1.052.121 2.152.218 3.111.294a3.771 3.771 0 0 0 2.235-.485c1.353-.757 2.077-2.28 2.035-3.643-.014-1.377-.69-2.524-1.402-3.208-.717-.702-1.436-1.009-1.802-1.188-.374-.17-.415-.263.011-.264.404.024 1.359.132 2.512 1.048a5.273 5.273 0 0 1 1.545 2.091c.39.951.568 2.182.219 3.484a5.544 5.544 0 0 1-5.3 4.095 70.941 70.941 0 0 1-2.652-.044l-1.93.002a50.02 50.02 0 0 0 3.358.213c.648 0 1.236.082 2.096-.037a5.732 5.732 0 0 0 2.272-.868c1.416-.907 2.462-2.556 2.59-4.36.164-1.793-.611-3.663-1.979-4.813a5.579 5.579 0 0 0-2.422-1.048 5.75 5.75 0 0 0-1.585-.035l-1.603.131c-2.214.16-4.718.216-7.068.14a75.049 75.049 0 0 1-6.142-.451c-1.597-.182-2.593-.334-2.56-.283 1.668.81 4.339 1.062 7.579 1.651l-1.234-.486zm-6.561-3.607c-2.692-.85-3.716-1.221-4.213-1.3-.493-.09-.442.069-.897.031a66.154 66.154 0 0 0 5.704 1.735c-.711-.26-1.042-.447-.594-.466zm-4.877-.917c.6.225 1.112.415 1.373.539l-1.373-.539zm-39.193-17.667l.355.467a77.649 77.649 0 0 1-2.286-3.415c.267.477.803 1.374 1.931 2.948zm7.018 9.293l1.284.645a76.755 76.755 0 0 1-2.643-2.816c.145.456.312.921 1.359 2.171zm31.201 20.951c1.231.113 3.779.714 6.124 1.091 2.343.389 4.467.573 4.757.304.527-.079-1.116-.396-2.938-.832-2.043-.439-4.205-1-6.462-1.702-.105.063-.581.014-1.355-.15 2.204.79 3.691 1.322 2.666 1.449-2.801-1.234-4.104-1.556-5.523-1.815-1.406-.28-2.934-.494-5.899-1.95-1.045-.244.565.656 2.737 1.58 2.166.935 4.907 1.815 5.893 2.025zM275.015 74.8c.091.168.437.713.938 1.463l-3.21-2.77c-1.935-2.01-3.749-4.07-5.64-6.162-1.875-2.076-3.821-4.18-5.61-5.872a67.41 67.41 0 0 0 .291 4.814c-.195 2.71-.609 3.919-.949 5.364.025-1.679.059-3.226.111-4.455a261.054 261.054 0 0 1-.294-7.753c2.01 1.924 3.387 3.38 4.389 4.535 1.008 1.16 1.663 2.041 2.346 2.93.683.89 1.388 1.782 2.498 2.969 1.124 1.202 2.598 2.642 5.13 4.937zm-14.759 58.44c-.039-.835-.143-1.136-.143-1.136 1.154 18.103 1.49 33.008 1.445 42.768.457-1.893.813-10.647 1.002-14.804l.521 3.684-.41 2.301.474 6.396c.351-1.789.278-6.954.548-10.406-.1-.3-.709-11.355-1.029-14.445l-.361 8.833c.146-2.385.025-14.103-.107-18.749-.262-.092-.665 7.916-.098 8.924-.387.953-.391-8.278-.807-2.44-.414-6.917-.068-17.924.123-23.03l.652-.865c.254-5.603-.785-3.785-.408-10.441.127 8.184.715-1.383.764 5.126.246-2.079.689-.042.641-6.565-.863-5.43.541-6.875-.221-12.008.27-3.429.52 3.69.635-3.058-.453-7.74-.779-7.292-1.407-7.772-.177 7.237.817 8.132.664 14.051l-1.075-11.773c-.152 2.17-.168 3.775-.125 5.123-.063-2.366-.223-4.376-.441-6.095l-.32-2.718c-.006 6.673-.021 12.598-.288 13.646l-.305-.92c-.28 2.362-.061 6.213.163 7.988.033 5.975.457 11.942.063 13.248l-.279-2.268c.086 7.344.125 8.164.129 17.405zm-.693 240.808c1.116-4.451 2.104-9.358 1.908-30.131l.076 1.635c.701-10.468-.926-20.409-.148-33.146.422 6.181.383 5.848 1.346 12.671l-.315-6.631c.608 1.837.294-4.776.322-9.642l.724 4.294c-.209 2.92-.283 10.49-.119 10.269-.08-1.658-.912 9.994-.702 16.324.489-.652.292-14.018 1.092-8.05-.335-5.26.153-5.912-.019-11.41.336 5.272.668 1.305 1.024 5.23l-.167-9.016c.164-.235.363 13.13.965 5.743-.256-3.612.066-13.258-.461-13.431l.162-.222c.113-6.758-.747-2.973-.446-11.271-.265-.098-.448 1.484-.394 4.457.117 2.513.48 2.897.554 8.072-.413 2.32.052-6.242-.646-2.649-.347 1.785.3 13.662-.483 9.877l.113-6.744c-.529-.173-.498-5.058-.924-4.921-.195-4.124.4-8.017-.06-12.229-.341-1.749-.976 1.306-.7-5.664.781-5.446.629-21.494.518-27.504l-.336-5.26c-.324.447.043 10.05-.377 6.673l-.127-8.204.203.633c.045-2.718-.174-5.499-.289-7.978.38 2.555.227 8.467.777 7.292.107-3.85.313-4.438.207-7.981.039.773.092 1.439.17 1.341.238-7.795-.615-7.528-.795-9.482-.715-7.838-.664 7.899-1.23 6.897l-.303-22.883c.18 1.954.357 3.922.582 3.185.254-5.612.428-.127.4-8.007-.752.561-.469-9.923-.902-15.49.308-2.601.369-3.136.379 2.552.488-.652.301-8.288.344-11.003-.121-1.572-.191-4.255-.301-5.955-.242 2.277-.549 1.305-.756-3.625l-.104-.287c-.133 8.083-.666 20.645-.166 25.712l-.242-1.432c-.422 9.354.877 20.357-.045 24.671-.365-.398-.084 1.879-.611 1.716l.412 6.888-.24-1.433.119 11.717-.098-.31c.491 5.569.877 9.932 1.186 13.417.229.013.301-.35.47 1.508.114 1.863.132 3.275.101 4.535.002.01.002.01.004.01h-.004c-.066 2.875-.396 4.79-.531 8.33l-.057-10.895c-.391-.888-.797.039-1.07 5.377-.014-2.183-.318-3.097-.363-.395.102.297.249 7.14.561 4.532.143 10.351-.883 27.105-.141 42.82-.447-11.29-.523 9.048-.684-3.485-.625 8.748.615 7.528.518 16.445-.225.761.029-4.854-.414-6.904-.25 14.827 1.01 25.018.82 39.361l-.488.614c.06 2.721.128 5.736.201 8.872zm1.344 28.461a66.787 66.787 0 0 0 1.953 8.27l-.209-.808s.635 2 1.404 3.944a69.127 69.127 0 0 0 1.646 3.835c-.89-2.403-1.365-4.479-1.362-5.089.023-.621.415.25 1.78 3.504-.401-.486.109 1.544-.881-.724.669 2.293 2.081 5.859 3.454 8.4 1.355 2.551 2.523 4.108 2.11 2.761-2.622-3.771-2.546-4.437-2.473-4.785.12-.383.284-.503-1.385-3.661 1.937 3.322 3.534 6.744 5.675 9.652-1.172-1.469-1.251-1.177-.674.118.586 1.285 1.89 3.542 3.604 5.83.818.936 2.292 2.705 4.039 4.503 1.737 1.806 3.753 3.628 5.399 4.869-.417-.643.104-.438.093-.622.005-.197-.574-.716-2.94-3.036a183.893 183.893 0 0 0 8.029 6.608c-1.429-.873-3.768-2.64-3.704-2.396 1.87 2.048 4.558 3.853 5.979 4.932 1.22.728 2.471 1.43 3.71 2.064a6.57 6.57 0 0 1-.83-.63 65.025 65.025 0 0 0 4.355 1.782c-2.858-1.245-3.444-1.69-3.336-1.741.113-.063.947.186 1.044.084-.401.414 3.534 1.87 5.514 2.603 0 0-1.015-.562-2.002-1.157-.99-.593-1.95-1.223-1.95-1.223 1.047.365 2.77 1.265 4.163 1.895 1.392.633 2.428 1.031 1.98.576-4.482-1.794-7.429-3.379-10.221-4.977-2.775-1.629-5.411-3.297-8.828-6.022l1.241 1.289 1.28 1.259c-2.031-1.429-3.258-2.504-4.133-3.345a20.376 20.376 0 0 1-1.914-2.131c-.525-.662-1.063-1.359-1.927-2.404-.86-1.049-2.054-2.438-3.762-4.598-1.585-1.667-3.986-5.075-5.77-8.216-1.813-3.124-3.085-5.924-3.497-5.876.394.592-.166-1.058-.883-3.321-.731-2.262-1.546-5.16-2.147-6.97-.87-1.948-1.844-6.114-2.243-9.354-.427-3.232-.5-5.493-.637-3.529.065 3.513 1.058 8.105 1.187 10.936 0 0-.379-1.654-.661-3.33-.292-1.674-.487-3.365-.487-3.365s.007 1.121.056 2.243c.044 1.123.133 2.247.133 2.247-.212-2.309-.548-2.047-.972-.894zm28.2 49.877l-.201-.142.229.15-.028-.008z"></path><path d="M317.802 104.738c-1.519-1.264-4.938-4.725-4.538-3.777.218-.385 6.192 6.1 4.538 3.777zM313.983 100.329c-.314-.17-.261.113-1.815-1.419l4.327 4.173-2.512-2.754zM311.73 93.958c-2.417-1.967-3.933-3.229-7.353-6.69-.557-2.027 5.838 5.427 8.083 6.301-6.236-6.375-8.814-7.668-14.063-12.793 2.263 2.877 12.585 13.551 13.333 13.182zM315.459 95.83l-3.673-3.341.303.389 3.676 3.344zM280.571 71.829c-.043-.273-.667-.899-1.435-1.597l-3.728-3.462 2.79 2.845c.254.251.513.508.775.77l.508.483c.347.323.711.646 1.09.961zM212.534 90.246l-26.529 26.972 26.529-26.972zM257.457 163.797c-.306-10.158-.865-14.67-1.008-25.021-.654 13.61 1.022 17.976.352 29.403l.656-4.382zM254.866 160.215c.612-1.684.717 7.837 1.166 6.363-.149-6.846-.583-3.188-.53-9.401l-.636 3.038zM264.981 114.183l.318 3.081-.117-2.48zM255.41 206.51l-.139-1.123-.193 5.094zM255.131 204.264l.141 1.123-.141-1.123zM266.293 118.141l.131-4.577-.281-2.265zM263.01 158.547l-.195-4.095c.037.812-.215 6.415.195 4.095zM255.15 237.615l.235 4.983.06-.509-.234-4.966zM264.698 190.602c.47-2.829.127 8.171.543 2.35-.074-5.178-.319-3.077-.543-2.35zM261.508 250.723c0 .672.016 1.38.068 2.063l-.068-2.063zM261.508 250.723c0-2.17.18-4.34.043-5.828-.213 2.705-.133 3.691-.043 5.828zM261.617 275.584l.033-1.968c.232 2.01.197 1.058.012-.737-.017-2.085-.166-1.968-.268-2.216l-.182-1.282.17 1.71c-.003 3.23.02 5.201.235 4.493zM253.691 367.936c.175-7.267.26-9.146.625-8.752.116-6.897-.512-5.827-.658-9.987.07 7.805-.098 9.4.033 18.739zM253.658 349.197l-.029-2.725a61.017 61.017 0 00.029 2.725zM265.609 246.527l.558 4.516-.077-1.658zM253.508 378.72c.023-1.348.007-3.508.132-4.568-.367-.389-.155 5.912-.132 4.568zM260.666 350.694c.223-.737.09-5.387.176-7.279-.047 2.715-.721 4.927-.176 7.279zM255.415 400.182c-.143-1.467-.032-3.73.333-2.777-.161-1.05-.416-2.289-.565-2.303-.134-.015-.272 1.221.232 5.08zM260.6 363.974l.125-1.037-.235-4.972zM265.992 346.237c-.436-5.593-1.051 8.872-1.42-.761-.457 12.426.617-.952.546 8.213.148-5.367.699-7.997.874-7.452zM265.118 353.689a97.57 97.57 0 00-.038 2.542l.038-2.542zM273.768 429.259l-1.146-1.45c.37.507.742.979 1.146 1.45zM265.479 382.962l-.654-8.383c.438 5.573.403 19.746 1.064 18.748.122-4.441-.043-10.017-.326-12.244l-.084 1.879zM308.117 463.609l-1.974-.427-1.964-.482s1.191.413 2.398.784c1.206.373 2.425.702 2.425.702-1.372-.457 1.272-.26-.885-.577zM309.948 464.434l-.945-.248c.205.068.503.154.945.248zM266.272 415.655a167.59 167.59 0 01-2.271-6.864c.063.504.501 2.374 1.044 4.027.535 1.656 1.152 3.092 1.227 2.837zM327.181 463.801c.14-.034.014.049.074-.027.016-.005-.073.087.005.022.013-.008.026-.012.019-.01-.007-.03-.044.095-.104-.104l-.039.221-.005.025.006-.129h.033l.055.004.031.004-.075-.006zM309.183 458.9l-.86-.369s-1.088-.248-2.167-.539c-1.081-.286-2.152-.611-2.152-.611l.852.43s1.075.31 2.157.581c1.081.275 2.17.508 2.17.508zM326.775 453.472c-3.706-.093-6.675.094-5.713.334a61.86 61.86 0 006.182.287 9.82 9.82 0 012.297.271 7.449 7.449 0 00-1.278-.369 8.715 8.715 0 00-.579-.085l-.465-.036a9.414 9.414 0 00-1.114.003c-.765.033-1.898.118-3.992-.115 0 0 1.175-.025 2.342-.101 1.183-.07 2.27-.188 2.32-.189zM257.535 284.995c.342 1.755.145 10.35-.181 10.8-.142-1.155-.276-5.814-.483-2.888l.84 6.8c-.523 9.046-1.104-6.875-1.4-11.342-.108 9.215.444 11.946.441 21.748.074-2.892.284-4.719.465-6.245.59-.333.328 8.8.375 15.329.258-4.157.474-1.752.705 1.275.02.545.053.907.092 1.165l.084 1.028-.002-.783c.066.056.146-.117.256-.682-.172-5.479.322-9.669.33-13.196-.961 3.485-.223-12.011-.518-16.445l-.096-5.119-.002-1.916c.105-.385.238.16.428 3.081-.189-2.438-.123-10.566-.432-9.815l-.014-18.55c.039-.578.088-1.155.158-1.583-.061-.643-.111-.75-.16-.665l-.061-80.821c-.076 3.987-.295 7.437-.402 11.548-.638-6.17-.115 6.741-.719 4.93-.219-2.773-.15-6.833-.003-9.25-.305-.9-.575 2.545-.939 2.147-.383 10.194 1.075 11.753.854 21.718-.365-.395-.685-3.475-.636 3.048l-.079-1.658c.409 10.445-.826 8.138.175 14.713l-.527-.173c.397 4.738.4 13.956.472 19.15l-.101-.31c.603 14.572.128 8.18.38 24.544l-.615-7.53c-.254 5.645.415 6.917.345 10.97-.101-.29-.487.649-.583-3.178l.938 19.854c.402 4.738.391-.962.615-1.699z"></path><path d="M256.752 310.113a85.207 85.207 0 00-.02 3.654l.02-3.654zM258.356 170.493l.006 5.678c.031-1.759.041-3.593-.006-5.678zM257.903 338.573c.273-3.442.382 2.577.584 3.178l-.01-12.331c-.203.056-.43-1.165-.615-.917l.041 10.07zM258.86 325.85c-.141-.418-.268-1.723-.387-3.185l.004 6.754c.152-.041.291-.798.383-3.569zM248.019 327.155l-.018-2.183-.157-3.301zM248.913 293.014c-.308 2.607-.074 7.555.004 9.209-.01-5.701.107-3.23-.004-9.209zM245.613 300.059l-.175-5.494-.06.512zM256.281 128.528l-.034-2.686a77.286 77.286 0 00.034 2.686zM256.783 175.678c.592-13.107.492 8.588 1.25 4.47l-.25-7.133.203.607-.066-8.699c-.349 1.785-.37 3.126-.736 2.738.143-11.613.434-3.661.895-12.181l-.066-12.98.109 1.051c-.008-1.093-.053-1.576-.113-1.951l-.227-43.744c-.291-7.958-.658 4.402-1.195-1.468.002 9.225-.387 22.932.342 23.715-.102-.31-.303-.92-.389.95l.6 5.335.191-5.087c.598 5.364.465 22.688.094 25.82-.203-9.851-.924-4.908-.532-18.632-.185.617-.51 3.129-.611.04.211 16.079-.121 30.491.501 47.149zM214.707 88.88l.043-.137c-.18.23-.228.316-.043.137zM218.588 85.127l5.037-6.047-8.601 8.681-.273.981c.674-.854 3.524-4.062 4.837-5.098l-1 1.483zM229.754 72.34c-4.312 4.613-3.652 4.788-1.028 2.543-3.904 4.292-2.61 1.713-4.992 4.976.393.209 5.267-5.019 6.373-6.234l-.353-1.285zM257.178 83.277l-.244-1.775-.065 4.372zM256.934 81.502l.066-6.466c-.182.583-.359 1.145-.483 2.354l.208 2.536.209 1.576zM257.17 55.021l.086-9.851a1314.43 1314.43 0 00-.001.002l-.085 9.849zM257.02 63.888l.076-.344.074-8.524c-.055 3.172-.102 6.017-.15 8.868z"></path><path d="M257 75.036c.206-.685.418-1.44.563-3.466.146-2.017.226-5.355.169-11.006l-.637 2.98L257 75.036zM246.235 260.094l-.234-4.962-.064.525.235 4.96zM246.613 231.459a88.616 88.616 0 00-.227-3.002c.045 1.292.114 2.32.227 3.002zM243.79 210.171c.416-5.837.55 8.053.734-2.757.387-.953.886 4.115.693 9.205-.364-.404-.233-4.959-.605-1.83.421 3.38.134 4.666.683 3.488.342 5.688.732 6.32 1.09 10.181-.242-6.875.322-21.311-.383-30.036-.66-4.81-1.561-1.893-2.514-1.912-.223.723-.329 13.191.302 13.661zM242.839 219.356c-.047 2.702-.009 3.527.07 5.185.326-.447-.056-3.002-.07-5.185zM250.015 157.268c-.136-.516-.304-5.403-.538-4.353l.171 7.41c.023-1.738.189-2.352.367-3.057zM249.721 163.575l-.073-3.25c-.012.813.007 1.818.073 3.25zM250.099 156.916l-.084.353c.029.104.058.084.084-.353zM241.688 60.523c.117-.487-4.092 3.943-6.13 6.09 1.72-1.688 4.109-3.956 6.13-6.09zM207.927 96.806l2.209-1.916c-.817.641-1.234.972-2.209 1.916zM234.664 59.965c.024-.096.146-.279.323-.512-.182.227-.294.401-.323.512zM234.987 59.452c1.256-1.563 5.847-5.676 7.177-7.474l-.127.27 2.773-3.051c-2.709 2.751-8.466 8.451-9.823 10.255z"></path></g></svg>